<?xml version="1.0" encoding="UTF-8" standalone="no"?>
<svg
   xmlns:dc="http://purl.org/dc/elements/1.1/"
   xmlns:cc="http://creativecommons.org/ns#"
   xmlns:rdf="http://www.w3.org/1999/02/22-rdf-syntax-ns#"
   xmlns:svg="http://www.w3.org/2000/svg"
   xmlns="http://www.w3.org/2000/svg"
   xmlns:sodipodi="http://sodipodi.sourceforge.net/DTD/sodipodi-0.dtd"
   xmlns:inkscape="http://www.inkscape.org/namespaces/inkscape"
   width="21.83901mm"
   height="5.9881349mm"
   viewBox="0 0 21.83901 5.9881349"
   version="1.1"
   id="svg12944"
   inkscape:version="1.0.1 (3bc2e813f5, 2020-09-07)"
   sodipodi:docname="fig1.svg">
  <defs
     id="defs12938">
    <clipPath
       id="clip20">
      <rect
         x="0"
         y="0"
         width="235"
         height="65"
         id="rect2833" />
    </clipPath>
    <clipPath
       id="clip21">
      <path
         d="M 0.441406,15 H 49 V 64.21875 H 0.441406 Z m 0,0"
         id="path2803" />
    </clipPath>
    <clipPath
       id="clip22">
      <path
         d="M 0.441406,0.0625 H 49 V 49 H 0.441406 Z m 0,0"
         id="path2806" />
    </clipPath>
    <clipPath
       id="clip23">
      <path
         d="m 53,15 h 51 V 64.21875 H 53 Z m 0,0"
         id="path2809" />
    </clipPath>
    <clipPath
       id="clip24">
      <path
         d="m 53,0.0625 h 51 V 48 H 53 Z m 0,0"
         id="path2812" />
    </clipPath>
    <clipPath
       id="clip25">
      <path
         d="m 123,16 h 51 v 48.21875 h -51 z m 0,0"
         id="path2815" />
    </clipPath>
    <clipPath
       id="clip26">
      <path
         d="m 123,0.0625 h 51 V 49 h -51 z m 0,0"
         id="path2818" />
    </clipPath>
    <clipPath
       id="clip27">
      <path
         d="m 179,16 h 51 v 48.21875 h -51 z m 0,0"
         id="path2821" />
    </clipPath>
    <clipPath
       id="clip28">
      <path
         d="m 179,0.0625 h 51 V 50 h -51 z m 0,0"
         id="path2824" />
    </clipPath>
    <clipPath
       id="clip29">
      <path
         d="m 220,15 h 14.41797 V 32 H 220 Z m 0,0"
         id="path2827" />
    </clipPath>
    <clipPath
       id="clip30">
      <path
         d="m 232,15 h 2.41797 V 32 H 232 Z m 0,0"
         id="path2830" />
    </clipPath>
    <clipPath
       id="clipPath12895">
      <rect
         x="0"
         y="0"
         width="235"
         height="65"
         id="rect12893" />
    </clipPath>
    <clipPath
       id="clipPath12899">
      <path
         d="M 0.441406,15 H 49 V 64.21875 H 0.441406 Z m 0,0"
         id="path12897" />
    </clipPath>
    <clipPath
       id="clipPath12903">
      <path
         d="M 0.441406,0.0625 H 49 V 49 H 0.441406 Z m 0,0"
         id="path12901" />
    </clipPath>
    <clipPath
       id="clipPath12907">
      <path
         d="m 53,15 h 51 V 64.21875 H 53 Z m 0,0"
         id="path12905" />
    </clipPath>
    <clipPath
       id="clipPath12911">
      <path
         d="m 53,0.0625 h 51 V 48 H 53 Z m 0,0"
         id="path12909" />
    </clipPath>
    <clipPath
       id="clipPath12915">
      <path
         d="m 123,16 h 51 v 48.21875 h -51 z m 0,0"
         id="path12913" />
    </clipPath>
    <clipPath
       id="clipPath12919">
      <path
         d="m 123,0.0625 h 51 V 49 h -51 z m 0,0"
         id="path12917" />
    </clipPath>
    <clipPath
       id="clipPath12923">
      <path
         d="m 179,16 h 51 v 48.21875 h -51 z m 0,0"
         id="path12921" />
    </clipPath>
    <clipPath
       id="clipPath12927">
      <path
         d="m 179,0.0625 h 51 V 50 h -51 z m 0,0"
         id="path12925" />
    </clipPath>
    <clipPath
       id="clipPath12931">
      <path
         d="m 220,15 h 14.41797 V 32 H 220 Z m 0,0"
         id="path12929" />
    </clipPath>
    <clipPath
       id="clipPath12935">
      <path
         d="m 232,15 h 2.41797 V 32 H 232 Z m 0,0"
         id="path12933" />
    </clipPath>
  </defs>
  <sodipodi:namedview
     id="base"
     pagecolor="#ffffff"
     bordercolor="#666666"
     borderopacity="1.0"
     inkscape:pageopacity="0.0"
     inkscape:pageshadow="2"
     inkscape:zoom="7.9195959"
     inkscape:cx="29.213227"
     inkscape:cy="3.8364352"
     inkscape:document-units="mm"
     inkscape:current-layer="layer1"
     inkscape:document-rotation="0"
     showgrid="false"
     fit-margin-top="0"
     fit-margin-left="0"
     fit-margin-right="0"
     fit-margin-bottom="0"
     inkscape:window-width="2014"
     inkscape:window-height="901"
     inkscape:window-x="965"
     inkscape:window-y="658"
     inkscape:window-maximized="0" />
  <metadata
     id="metadata12941">
    <rdf:RDF>
      <cc:Work
         rdf:about="">
        <dc:format>image/svg+xml</dc:format>
        <dc:type
           rdf:resource="http://purl.org/dc/dcmitype/StillImage" />
        <dc:title></dc:title>
      </cc:Work>
    </rdf:RDF>
  </metadata>
  <g
     inkscape:label="Ebene 1"
     inkscape:groupmode="layer"
     id="layer1"
     transform="translate(-270.29478,-98.303552)">
    <g
       id="use7361"
       clip-path="url(#clip20)"
       transform="matrix(0.09333912,0,0,0.09333912,270.25342,98.297565)">
      <path
         style="fill:none;stroke:#000000;stroke-width:1.76482;stroke-linecap:butt;stroke-linejoin:miter;stroke-miterlimit:4;stroke-dasharray:5.29444, 1.76482;stroke-opacity:1"
         d="m 209.89964,-154.95255 c -0.0159,21.43755 -12.87405,40.81204 -32.63597,49.12627 -19.78845,8.314244 -42.6078,3.97442 -57.95054,-11.03484 l 37.28449,-38.09143 z m 0,0"
         transform="matrix(-7.32864e-5,0.14723,-0.14723,-7.32864e-5,0.44,0.0616828)"
         id="path13135" />
      <path
         style="fill:none;stroke:#000000;stroke-width:1.76482;stroke-linecap:butt;stroke-linejoin:miter;stroke-miterlimit:4;stroke-dasharray:5.29444, 1.76482;stroke-opacity:1"
         d="m -225.31456,154.85409 c 0.0107,21.46407 -12.84751,40.83855 -32.63596,49.1528 -19.76192,8.31423 -42.6078,3.97442 -57.95054,-11.03484 l 37.28449,-38.09143 z m 0,0"
         transform="matrix(7.32812e-5,-0.14723,0.14723,7.32812e-5,0.44,0.0616828)"
         id="path13137" />
      <path
         style="fill:#636363;fill-opacity:1;fill-rule:nonzero;stroke:#636363;stroke-width:8.50394;stroke-linecap:butt;stroke-linejoin:miter;stroke-miterlimit:4;stroke-opacity:1"
         d="M 87.245509,88.886468 134.07381,135.7413"
         transform="matrix(0.14723,0,0,0.14723,0.44,0.0616828)"
         id="path13139" />
      <path
         style="fill:none;stroke:#636363;stroke-width:8.50394;stroke-linecap:butt;stroke-linejoin:miter;stroke-miterlimit:4;stroke-opacity:1"
         d="M 155.13992,247.62513 V 181.37568"
         transform="matrix(0.14723,0,0,0.14723,0.44,0.0616828)"
         id="path13141" />
      <path
         style="fill:#5454ff;fill-opacity:1;fill-rule:nonzero;stroke:#000000;stroke-width:1.36503;stroke-linecap:butt;stroke-linejoin:miter;stroke-miterlimit:4;stroke-opacity:1"
         d="m -150.4984,-25.706097 c -0.005,12.792184 -10.35576,23.154204 -23.14794,23.148962 -12.79219,-0.00524 -23.15421,-10.355759 -23.14897,-23.147943 -0.0244,-12.796377 10.35576,-23.154204 23.14795,-23.148962 12.77943,-0.0117 23.1542,10.355759 23.14896,23.147943 z m 0,0"
         transform="matrix(-0.14723,-0.110786,0.110786,-0.14723,0.44,0.0616828)"
         id="path13143" />
      <path
         style="fill:#636363;fill-opacity:1;fill-rule:nonzero;stroke:#636363;stroke-width:8.50394;stroke-linecap:butt;stroke-linejoin:miter;stroke-miterlimit:4;stroke-opacity:1"
         d="M 221.86693,342.07769 175.0121,295.22285"
         transform="matrix(0.14723,0,0,0.14723,0.44,0.0616828)"
         id="path13145" />
      <path
         style="fill:#ffffff;fill-opacity:1;fill-rule:nonzero;stroke:#000000;stroke-width:1.74395;stroke-linecap:butt;stroke-linejoin:miter;stroke-miterlimit:4;stroke-opacity:1"
         d="m -306.32878,-114.7848 c -0.005,10.32448 -8.37846,18.694808 -18.70295,18.689909 -10.32448,-0.0049 -18.69481,-8.378469 -18.68991,-18.702949 -0.012,-10.31174 8.36153,-18.68206 18.68601,-18.67716 10.34143,-0.008 18.699,8.34877 18.70685,18.6902 z m 0,0"
         transform="matrix(-0.14723,-0.110786,0.110786,-0.14723,0.44,0.0616828)"
         id="path13147" />
      <path
         style="fill:#ff5454;fill-opacity:1;fill-rule:nonzero;stroke:#000000;stroke-width:1.36503;stroke-linecap:butt;stroke-linejoin:miter;stroke-miterlimit:4;stroke-opacity:1"
         d="m -207.32382,-101.22462 c 0.0117,12.779437 -10.36851,23.137264 -23.14795,23.148962 -12.79218,-0.0052 -23.16695,-10.372699 -23.16171,-23.164882 -0.0117,-12.77944 10.36851,-23.13727 23.14795,-23.14896 12.79218,0.005 23.16695,10.3727 23.16171,23.16488 z m 0,0"
         transform="matrix(-0.14723,-0.110786,0.110786,-0.14723,0.44,0.0616828)"
         id="path13149" />
      <path
         style="fill:#ffffff;fill-opacity:1;fill-rule:nonzero;stroke:#000000;stroke-width:1.74395;stroke-linecap:butt;stroke-linejoin:miter;stroke-miterlimit:4;stroke-opacity:1"
         d="m 98.057035,11.864634 c -0.0049,10.324485 -8.361526,18.682062 -18.702951,18.68991 -10.311738,0.01204 -18.682062,-8.361525 -18.677163,-18.68601 0.0049,-10.324485 8.365718,-18.711749 18.690203,-18.706851 10.324485,0.0049 18.694809,8.378466 18.689911,18.702951 z m 0,0"
         transform="matrix(0.14723,0.110786,-0.110786,0.14723,0.44,0.0616828)"
         id="path13151" />
      <path
         style="fill:#000000;fill-opacity:1;fill-rule:nonzero;stroke:none"
         d="m 10.648438,26.339844 c -0.339844,0.04297 -0.679688,0.15625 -0.980469,0.367187 -0.171875,0.113281 -0.253907,0.1875 -0.410157,0.328125 -0.300781,0.3125 -0.5,0.609375 -0.640624,0.980469 -0.199219,0.496094 -0.242188,1.023437 -0.113282,1.449219 0.128906,0.496094 0.46875,0.851562 0.910156,1.007812 0.167969,0.07031 0.355469,0.09766 0.582032,0.08594 0.398437,-0.01563 0.78125,-0.117188 1.164062,-0.3125 0.199219,-0.101563 0.367188,-0.214844 0.566406,-0.355469 0.07422,-0.04297 0.113282,-0.08594 0.113282,-0.08594 0.01563,0 0.01563,0.04297 0.04297,0.08594 0.04297,0.125 0.128907,0.296875 0.1875,0.382813 0.09766,0.125 0.238282,0.210937 0.382813,0.253906 0.05469,0.01563 0.09766,0.01563 0.210937,0.01563 0.113282,0 0.15625,0 0.226563,-0.01563 0.285156,-0.08594 0.542969,-0.253906 0.710937,-0.496094 0.03125,-0.04297 0.04297,-0.07031 0.03125,-0.07031 0,-0.01563 -0.3125,-0.269532 -0.371093,-0.3125 0,0 -0.01563,0.01172 -0.02734,0.04297 -0.05859,0.113282 -0.144531,0.199219 -0.257813,0.253906 -0.07031,0.03125 -0.167968,0.05859 -0.226562,0.04297 -0.113281,-0.01172 -0.199219,-0.242187 -0.253906,-0.695312 l -0.01563,-0.140625 0.113281,-0.144532 c 0.46875,-0.609374 0.796875,-1.320312 0.980469,-2.074218 0.02734,-0.08203 0.02734,-0.140625 0.02734,-0.152344 0,-0.01563 -0.46875,-0.144531 -0.496093,-0.144531 0,0 -0.01563,0.02734 -0.02734,0.09766 -0.08594,0.371094 -0.214844,0.769531 -0.398437,1.125 -0.07031,0.167969 -0.242188,0.496094 -0.257813,0.496094 0,0 -0.01172,-0.08594 -0.01172,-0.183594 -0.04297,-0.398437 -0.101562,-0.652344 -0.242187,-0.953125 -0.285157,-0.566406 -0.78125,-0.894531 -1.390625,-0.878906 -0.04297,0 -0.113282,0 -0.128906,0 z m 0.183593,0.582031 c 0.328125,0.04297 0.570313,0.296875 0.695313,0.710937 0.101562,0.253907 0.117187,0.410157 0.171875,1.09375 l 0.04297,0.496094 -0.05859,0.05469 c -0.324219,0.300781 -0.722656,0.539062 -1.105469,0.640625 -0.199219,0.05859 -0.328125,0.07031 -0.527344,0.07031 -0.167969,0 -0.183593,0 -0.269531,-0.01172 -0.355469,-0.101562 -0.582031,-0.386718 -0.625,-0.8125 -0.027344,-0.113281 -0.011719,-0.410156 0,-0.539062 0.113281,-0.722656 0.441406,-1.277344 0.925781,-1.5625 0.253907,-0.140625 0.523438,-0.199219 0.75,-0.140625 z m 0,0"
         id="path13153" />
      <g
         clip-path="url(#clip21)"
         clip-rule="nonzero"
         id="g13157">
        <path
           style="fill:none;stroke:#e8aeae;stroke-width:2.36628;stroke-linecap:butt;stroke-linejoin:miter;stroke-miterlimit:4;stroke-dasharray:9.46508, 18.9301;stroke-opacity:1"
           d="m -108.36998,-101.2367 c -0.004,67.446191 -54.6732,122.114439 -122.11939,122.110691 -67.43345,0.01319 -122.1017,-54.656261 -122.09795,-122.102451 -0.0132,-67.43345 54.6732,-122.11444 122.08971,-122.11489 67.44619,0.004 122.11444,54.67321 122.12763,122.10665 z m 0,0"
           transform="matrix(-0.14723,-0.110786,0.110786,-0.14723,0.44,0.0616828)"
           id="path13155" />
      </g>
      <g
         clip-path="url(#clip22)"
         clip-rule="nonzero"
         id="g13161">
        <path
           style="fill:none;stroke:#a8a8ff;stroke-width:2.36628;stroke-linecap:butt;stroke-linejoin:miter;stroke-miterlimit:4;stroke-dasharray:9.46508, 18.9301;stroke-opacity:1"
           d="m -51.654753,-25.688323 c -0.0037,67.446192 -54.673197,122.11444 -122.119397,122.110692 -67.43344,0.01319 -122.10169,-54.656262 -122.09794,-122.102453 -0.0132,-67.433444 54.6732,-122.114436 122.10245,-122.097946 67.43345,-0.0132 122.101695,54.656263 122.114887,122.089707 z m 0,0"
           transform="matrix(-0.14723,-0.110786,0.110786,-0.14723,0.44,0.0616828)"
           id="path13159" />
      </g>
      <path
         style="fill:#000000;fill-opacity:1;fill-rule:nonzero;stroke:none"
         d="m 32.84375,30.171875 c -0.339844,0.04297 -0.683594,0.15625 -0.980469,0.367187 -0.171875,0.113282 -0.257812,0.1875 -0.414062,0.328126 -0.296875,0.3125 -0.496094,0.609374 -0.636719,0.980468 -0.199219,0.496094 -0.242188,1.023438 -0.113281,1.449219 0.128906,0.496094 0.46875,0.851563 0.90625,1.007813 0.171875,0.07031 0.355469,0.09766 0.585937,0.08203 0.394532,-0.01172 0.78125,-0.109375 1.164063,-0.308594 0.199219,-0.101563 0.367187,-0.214844 0.566406,-0.355469 0.07031,-0.04297 0.113281,-0.08594 0.113281,-0.08594 0.01563,0 0.01563,0.04297 0.04297,0.08594 0.04297,0.125 0.128906,0.296875 0.183594,0.382813 0.101562,0.128906 0.242187,0.210937 0.386719,0.253906 0.05469,0.01563 0.09766,0.01563 0.210937,0.01563 0.113281,0 0.15625,0 0.226563,-0.01563 0.285156,-0.08203 0.539062,-0.253906 0.710937,-0.496094 0.02734,-0.04297 0.04297,-0.07031 0.02734,-0.07031 0,-0.01563 -0.3125,-0.269531 -0.367188,-0.3125 0,0 -0.01563,0.01563 -0.02734,0.04297 -0.05859,0.113281 -0.144532,0.199218 -0.257813,0.253906 C 35.101562,33.808594 35,33.835938 34.945312,33.820312 34.832031,33.808594 34.746094,33.578125 34.6875,33.125 l -0.01172,-0.140625 0.113281,-0.144531 c 0.46875,-0.609375 0.792969,-1.320313 0.980469,-2.070313 0.02734,-0.08594 0.02734,-0.144531 0.02734,-0.160156 0,-0.01172 -0.46875,-0.140625 -0.496094,-0.140625 0,0 -0.01563,0.02734 -0.03125,0.101562 -0.08203,0.367188 -0.210937,0.765626 -0.394531,1.121094 -0.07031,0.167969 -0.242188,0.496094 -0.257812,0.496094 0,0 -0.01172,-0.08594 -0.01172,-0.183594 -0.04297,-0.398437 -0.101563,-0.652344 -0.242188,-0.953125 -0.285156,-0.566406 -0.78125,-0.894531 -1.390625,-0.878906 -0.04297,0 -0.117187,0 -0.128906,0 z m 0.183594,0.582031 c 0.328125,0.04297 0.566406,0.296875 0.695312,0.710938 0.101563,0.253906 0.113282,0.410156 0.171875,1.09375 l 0.04297,0.496094 -0.05859,0.05469 c -0.324218,0.300781 -0.722656,0.539063 -1.105468,0.640625 -0.199219,0.05859 -0.328126,0.07031 -0.527344,0.07031 -0.171875,0 -0.183594,0 -0.269532,-0.01172 -0.355468,-0.101563 -0.582031,-0.386719 -0.625,-0.8125 -0.02734,-0.113282 -0.01562,-0.410156 0,-0.539063 0.113282,-0.722656 0.441407,-1.277343 0.921876,-1.5625 0.257812,-0.140625 0.527343,-0.199219 0.753906,-0.140625 z m 0,0"
         id="path13163" />
      <path
         style="fill:none;stroke:#000000;stroke-width:1.76482;stroke-linecap:butt;stroke-linejoin:miter;stroke-miterlimit:4;stroke-dasharray:5.29444, 1.76482;stroke-opacity:1"
         d="m 205.12008,530.19488 c -0.0159,21.43756 -12.87405,40.81204 -32.63597,49.12627 -19.78845,8.31425 -42.6078,3.97442 -57.95054,-11.03484 l 37.28449,-38.09143 z m 0,0"
         transform="matrix(7.32864e-5,0.14723,0.14723,-7.32864e-5,0.44,0.0616828)"
         id="path13165" />
      <path
         style="fill:#636363;fill-opacity:1;fill-rule:nonzero;stroke:#636363;stroke-width:8.50394;stroke-linecap:butt;stroke-linejoin:miter;stroke-miterlimit:4;stroke-opacity:1"
         d="m -86.763938,-595.21985 -46.828302,46.85483"
         transform="matrix(0,-0.14723,-0.14723,0,0.44,0.0616828)"
         id="path13167" />
      <path
         style="fill:#ffffff;fill-opacity:1;fill-rule:nonzero;stroke:#000000;stroke-width:1.74395;stroke-linecap:butt;stroke-linejoin:miter;stroke-miterlimit:4;stroke-opacity:1"
         d="m -338.68867,338.38014 c -0.005,10.32449 -8.36152,18.68207 -18.70295,18.68991 -10.31174,0.012 -18.68206,-8.36152 -18.67716,-18.68601 -0.008,-10.34142 8.36572,-18.71174 18.6902,-18.70685 10.32449,0.005 18.69481,8.37847 18.68991,18.70295 z m 0,0"
         transform="matrix(-0.14723,0.110786,0.110786,0.14723,0.44,0.0616828)"
         id="path13169" />
      <path
         style="fill:none;stroke:#000000;stroke-width:1.76482;stroke-linecap:butt;stroke-linejoin:miter;stroke-miterlimit:4;stroke-dasharray:5.29444, 1.76482;stroke-opacity:1"
         d="m -223.00504,530.54064 c 0.0107,21.46407 -12.84752,40.81202 -32.63597,49.12627 -19.76192,8.31423 -42.6078,3.97442 -57.92401,-11.03486 l 37.25796,-38.09141 z m 0,0"
         transform="matrix(7.32812e-5,-0.14723,0.14723,7.32812e-5,0.44,0.0616828)"
         id="path13171" />
      <path
         style="fill:none;stroke:#636363;stroke-width:8.50394;stroke-linecap:butt;stroke-linejoin:miter;stroke-miterlimit:4;stroke-opacity:1"
         d="M 530.82762,245.5026 V 179.25316"
         transform="matrix(0.14723,0,0,0.14723,0.44,0.0616828)"
         id="path13173" />
      <path
         style="fill:#5454ff;fill-opacity:1;fill-rule:nonzero;stroke:#000000;stroke-width:1.36503;stroke-linecap:butt;stroke-linejoin:miter;stroke-miterlimit:4;stroke-opacity:1"
         d="m -389.33213,156.13164 c -0.005,12.79219 -10.37269,23.16695 -23.16488,23.16171 -12.79218,-0.005 -23.13726,-10.3685 -23.14896,-23.14794 0.005,-12.79218 10.3727,-23.16695 23.16488,-23.16171 12.77944,-0.0117 23.13727,10.36851 23.14896,23.14794 z m 0,0"
         transform="matrix(-0.14723,-0.110786,0.110786,-0.14723,0.44,0.0616828)"
         id="path13175" />
      <path
         style="fill:#636363;fill-opacity:1;fill-rule:nonzero;stroke:#636363;stroke-width:8.50394;stroke-linecap:butt;stroke-linejoin:miter;stroke-miterlimit:4;stroke-opacity:1"
         d="M 597.5281,339.92863 550.6998,293.10032"
         transform="matrix(0.14723,0,0,0.14723,0.44,0.0616828)"
         id="path13177" />
      <path
         style="fill:#ffffff;fill-opacity:1;fill-rule:nonzero;stroke:#000000;stroke-width:1.74395;stroke-linecap:butt;stroke-linejoin:miter;stroke-miterlimit:4;stroke-opacity:1"
         d="m -545.17944,67.065686 c -0.005,10.324486 -8.36153,18.682063 -18.70295,18.689911 -10.32449,-0.0049 -18.69481,-8.378465 -18.68991,-18.70295 0.005,-10.324486 8.37846,-18.694809 18.70295,-18.689911 10.32448,0.0049 18.69481,8.378465 18.68991,18.70295 z m 0,0"
         transform="matrix(-0.14723,-0.110786,0.110786,-0.14723,0.44,0.0616828)"
         id="path13179" />
      <path
         style="fill:#ff5454;fill-opacity:1;fill-rule:nonzero;stroke:#000000;stroke-width:1.36503;stroke-linecap:butt;stroke-linejoin:miter;stroke-miterlimit:4;stroke-opacity:1"
         d="m -446.15755,80.613121 c -0.005,12.792184 -10.38544,23.150009 -23.16488,23.161709 -12.79219,-0.005 -23.15001,-10.385446 -23.16171,-23.164884 0.005,-12.792184 10.38545,-23.150011 23.16488,-23.161708 12.79219,0.0052 23.15001,10.385445 23.16171,23.164883 z m 0,0"
         transform="matrix(-0.14723,-0.110786,0.110786,-0.14723,0.44,0.0616828)"
         id="path13181" />
      <g
         clip-path="url(#clip23)"
         clip-rule="nonzero"
         id="g13185">
        <path
           style="fill:none;stroke:#e8aeae;stroke-width:2.36628;stroke-linecap:butt;stroke-linejoin:miter;stroke-miterlimit:4;stroke-dasharray:9.46508, 18.9301;stroke-opacity:1"
           d="m -347.22065,80.613788 c 0.0132,67.433442 -54.6732,122.114442 -122.11939,122.110692 -67.4165,4.4e-4 -122.10169,-54.65626 -122.09794,-122.102454 0.004,-67.446191 54.6732,-122.114439 122.10664,-122.127631 67.44619,0.0037 122.11444,54.673201 122.11069,122.119393 z m 0,0"
           transform="matrix(-0.14723,-0.110786,0.110786,-0.14723,0.44,0.0616828)"
           id="path13183" />
      </g>
      <g
         clip-path="url(#clip24)"
         clip-rule="nonzero"
         id="g13189">
        <path
           style="fill:none;stroke:#a8a8ff;stroke-width:2.36628;stroke-linecap:butt;stroke-linejoin:miter;stroke-miterlimit:4;stroke-dasharray:9.46508, 18.9301;stroke-opacity:1"
           d="m -290.50542,156.16216 c -0.004,67.4462 -54.6732,122.11444 -122.10664,122.12764 -67.44619,-0.004 -122.11444,-54.67321 -122.11069,-122.1194 0.004,-67.446187 54.6732,-122.114436 122.11939,-122.110687 67.43344,-0.01319 122.11444,54.673201 122.09794,122.102447 z m 0,0"
           transform="matrix(-0.14723,-0.110786,0.110786,-0.14723,0.44,0.0616828)"
           id="path13187" />
      </g>
      <path
         style="fill:#000000;fill-opacity:1;fill-rule:nonzero;stroke:none"
         d="m 88.976562,28.304688 c -0.339843,0.04297 -0.679687,0.15625 -0.980468,0.371093 -0.171875,0.113281 -0.253906,0.183594 -0.410156,0.324219 -0.300782,0.3125 -0.5,0.613281 -0.640626,0.980469 -0.199218,0.5 -0.242187,1.023437 -0.113281,1.449219 0.128907,0.496093 0.46875,0.851562 0.910157,1.007812 0.167968,0.07031 0.355468,0.101562 0.582031,0.08594 0.398437,-0.01563 0.78125,-0.113282 1.164062,-0.3125 0.199219,-0.09766 0.367188,-0.214844 0.566407,-0.355469 0.07031,-0.04297 0.113281,-0.08594 0.113281,-0.08594 0.01563,0 0.01563,0.04297 0.04297,0.08594 0.04297,0.128906 0.128906,0.300781 0.1875,0.382812 0.09766,0.128907 0.238281,0.214844 0.382812,0.257813 0.05469,0.01172 0.09766,0.01172 0.210938,0.01172 0.113281,0 0.15625,0 0.226562,-0.01172 0.285156,-0.08594 0.542969,-0.257813 0.710938,-0.5 0.02734,-0.03906 0.04297,-0.07031 0.02734,-0.07031 0,-0.01172 -0.308593,-0.269531 -0.367187,-0.3125 0,0 -0.01563,0.01563 -0.02734,0.04297 -0.05859,0.113281 -0.144531,0.199219 -0.257812,0.257812 -0.07031,0.02734 -0.167969,0.05469 -0.226563,0.04297 -0.113281,-0.01563 -0.199219,-0.242187 -0.253906,-0.699219 l -0.01563,-0.140624 0.113281,-0.140626 c 0.46875,-0.613281 0.796875,-1.320312 0.980469,-2.074218 0.02734,-0.08594 0.02734,-0.140625 0.02734,-0.15625 0,-0.01563 -0.46875,-0.140625 -0.496094,-0.140625 0,0 -0.01563,0.02734 -0.02734,0.09766 -0.08594,0.371094 -0.214844,0.765625 -0.398438,1.121094 -0.07031,0.171875 -0.242187,0.496093 -0.257812,0.496093 0,0 -0.01172,-0.08203 -0.01172,-0.183593 -0.04297,-0.398438 -0.101562,-0.652344 -0.242187,-0.949219 -0.285156,-0.570312 -0.78125,-0.894531 -1.390625,-0.882812 -0.04297,0 -0.113281,0 -0.128907,0 z m 0.183594,0.582031 c 0.328125,0.04297 0.570313,0.300781 0.695313,0.710937 0.101562,0.253906 0.117187,0.410156 0.171875,1.09375 l 0.04297,0.496094 -0.05859,0.05859 c -0.324219,0.296875 -0.722657,0.539062 -1.105469,0.636718 -0.199219,0.05859 -0.328125,0.07422 -0.527344,0.07422 -0.167968,0 -0.183594,0 -0.269531,-0.01563 -0.355469,-0.09766 -0.582031,-0.382812 -0.625,-0.808594 -0.02734,-0.113281 -0.01172,-0.414062 0,-0.539062 0.113281,-0.726562 0.441406,-1.28125 0.925781,-1.5625 0.253906,-0.144531 0.523438,-0.199219 0.75,-0.144531 z m 0,0"
         id="path13191" />
      <path
         style="fill:#000000;fill-opacity:1;fill-rule:nonzero;stroke:#000000;stroke-width:5.66929;stroke-linecap:butt;stroke-linejoin:miter;stroke-miterlimit:4;stroke-opacity:1"
         d="M 979.45073,172.30187 918.24229,197.6661"
         transform="matrix(0.14723,0,0,0.14723,0.44,0.0616828)"
         id="path13193" />
      <path
         style="fill:#000000;fill-opacity:1;fill-rule:evenodd;stroke:#000000;stroke-width:1.39673;stroke-linecap:butt;stroke-linejoin:miter;stroke-miterlimit:4;stroke-opacity:1"
         d="m 720.17009,493.36982 5.24407,-5.23017 -18.34486,5.2161 18.34033,5.23549 z m 0,0"
         transform="matrix(0.14723,-0.0609846,0.0609846,0.14723,0.44,0.0616828)"
         id="path13195" />
      <path
         style="fill:#000000;fill-opacity:1;fill-rule:nonzero;stroke:#000000;stroke-width:5.66929;stroke-linecap:butt;stroke-linejoin:miter;stroke-miterlimit:4;stroke-opacity:1"
         d="m 1030.7098,269.00962 61.2085,-25.36423"
         transform="matrix(0.14723,0,0,0.14723,0.44,0.0616828)"
         id="path13197" />
      <path
         style="fill:#000000;fill-opacity:1;fill-rule:evenodd;stroke:#000000;stroke-width:1.39673;stroke-linecap:butt;stroke-linejoin:miter;stroke-miterlimit:4;stroke-opacity:1"
         d="m -839.58211,-594.01215 5.2308,-5.26218 -18.33159,5.2481 18.34032,5.2355 z m 0,0"
         transform="matrix(-0.14723,0.0609847,-0.0609847,-0.14723,0.44,0.0616828)"
         id="path13199" />
      <path
         style="fill:#636363;fill-opacity:1;fill-rule:nonzero;stroke:#636363;stroke-width:8.50394;stroke-linecap:butt;stroke-linejoin:miter;stroke-miterlimit:4;stroke-opacity:1"
         d="m 938.141,94.033602 46.82831,46.854838"
         transform="matrix(0.14723,0,0,0.14723,0.44,0.0616828)"
         id="path13201" />
      <path
         style="fill:none;stroke:#636363;stroke-width:8.50394;stroke-linecap:butt;stroke-linejoin:miter;stroke-miterlimit:4;stroke-opacity:1"
         d="M 1006.0354,252.77227 V 186.52282"
         transform="matrix(0.14723,0,0,0.14723,0.44,0.0616828)"
         id="path13203" />
      <path
         style="fill:#5454ff;fill-opacity:1;fill-rule:nonzero;stroke:#000000;stroke-width:1.36503;stroke-linecap:butt;stroke-linejoin:miter;stroke-miterlimit:4;stroke-opacity:1"
         d="m -696.25405,379.81152 c 0.0117,12.77944 -10.36851,23.13727 -23.14795,23.14897 -12.79218,-0.005 -23.16695,-10.3727 -23.16171,-23.16489 0.005,-12.79218 10.36851,-23.13726 23.14795,-23.14896 12.79218,0.005 23.16695,10.3727 23.16171,23.16488 z m 0,0"
         transform="matrix(-0.14723,-0.110786,0.110786,-0.14723,0.44,0.0616828)"
         id="path13205" />
      <path
         style="fill:#636363;fill-opacity:1;fill-rule:nonzero;stroke:#636363;stroke-width:8.50394;stroke-linecap:butt;stroke-linejoin:miter;stroke-miterlimit:4;stroke-opacity:1"
         d="m 1072.7624,347.22482 -46.8548,-46.85483"
         transform="matrix(0.14723,0,0,0.14723,0.44,0.0616828)"
         id="path13207" />
      <path
         style="fill:#ffffff;fill-opacity:1;fill-rule:nonzero;stroke:#000000;stroke-width:1.74395;stroke-linecap:butt;stroke-linejoin:miter;stroke-miterlimit:4;stroke-opacity:1"
         d="m -852.09717,290.71588 c -0.005,10.32448 -8.37847,18.69481 -18.69021,18.70685 -10.32448,-0.005 -18.69481,-8.37847 -18.68991,-18.70295 0.005,-10.32449 8.36153,-18.68206 18.70295,-18.68991 10.31174,-0.012 18.68206,8.36152 18.67717,18.68601 z m 0,0"
         transform="matrix(-0.14723,-0.110786,0.110786,-0.14723,0.44,0.0616828)"
         id="path13209" />
      <path
         style="fill:#ff5454;fill-opacity:1;fill-rule:nonzero;stroke:#000000;stroke-width:1.36503;stroke-linecap:butt;stroke-linejoin:miter;stroke-miterlimit:4;stroke-opacity:1"
         d="m -753.09222,304.27606 c 0.0117,12.77944 -10.35576,23.15421 -23.14795,23.14896 -12.77943,0.0117 -23.1542,-10.35576 -23.14896,-23.14794 0.005,-12.79218 10.35576,-23.1542 23.14795,-23.14896 12.79218,0.005 23.1542,10.35576 23.14896,23.14794 z m 0,0"
         transform="matrix(-0.14723,-0.110786,0.110786,-0.14723,0.44,0.0616828)"
         id="path13211" />
      <path
         style="fill:#ffffff;fill-opacity:1;fill-rule:nonzero;stroke:#000000;stroke-width:1.74395;stroke-linecap:butt;stroke-linejoin:miter;stroke-miterlimit:4;stroke-opacity:1"
         d="m 643.81268,-393.65299 c -0.005,10.32449 -8.36571,18.71175 -18.6902,18.70685 -10.32448,-0.005 -18.69481,-8.37846 -18.68991,-18.70295 0.005,-10.32448 8.37847,-18.69481 18.70295,-18.68991 10.31174,-0.012 18.68206,8.36153 18.67716,18.68601 z m 0,0"
         transform="matrix(0.14723,0.110786,-0.110786,0.14723,0.44,0.0616828)"
         id="path13213" />
      <g
         clip-path="url(#clip25)"
         clip-rule="nonzero"
         id="g13217">
        <path
           style="fill:none;stroke:#e8aeae;stroke-width:2.36628;stroke-linecap:butt;stroke-linejoin:miter;stroke-miterlimit:4;stroke-dasharray:9.46508, 18.9301;stroke-opacity:1"
           d="m -654.12563,304.28092 c -0.004,67.44619 -54.67321,122.11444 -122.1194,122.11069 -67.44619,-0.004 -122.11444,-54.6732 -122.11069,-122.11939 0.004,-67.44619 54.6732,-122.11444 122.1194,-122.11069 67.44619,0.004 122.11443,54.6732 122.11069,122.11939 z m 0,0"
           transform="matrix(-0.14723,-0.110786,0.110786,-0.14723,0.44,0.0616828)"
           id="path13215" />
      </g>
      <g
         clip-path="url(#clip26)"
         clip-rule="nonzero"
         id="g13221">
        <path
           style="fill:none;stroke:#a8a8ff;stroke-width:2.36628;stroke-linecap:butt;stroke-linejoin:miter;stroke-miterlimit:4;stroke-dasharray:9.46508, 18.9301;stroke-opacity:1"
           d="m -597.4104,379.8293 c -0.004,67.44619 -54.67321,122.11444 -122.1194,122.11069 -67.43344,0.0132 -122.11444,-54.6732 -122.09794,-122.10245 0.004,-67.44619 54.6732,-122.11444 122.10665,-122.12763 67.44619,0.004 122.11443,54.6732 122.11069,122.11939 z m 0,0"
           transform="matrix(-0.14723,-0.110786,0.110786,-0.14723,0.44,0.0616828)"
           id="path13219" />
      </g>
      <path
         style="fill:#ffffff;fill-opacity:1;fill-rule:nonzero;stroke:#ffffff;stroke-width:5.67074;stroke-linecap:butt;stroke-linejoin:miter;stroke-miterlimit:4;stroke-opacity:1"
         d="m 1128.5054,229.23872 h 56.8307 v 102.5447 h -56.8307 z m 0,0"
         transform="matrix(0.14723,0,0,0.14723,0.44,0.0616828)"
         id="path13223" />
      <path
         style="fill:#000000;fill-opacity:1;fill-rule:nonzero;stroke:none"
         d="m 166.18359,41.347656 v 7.957032 h 1.77735 v -0.394532 h -1.3711 V 33.8125 h 1.3711 v -0.40625 h -1.77735 z m 0,0"
         id="path13225" />
      <path
         style="fill:#000000;fill-opacity:1;fill-rule:nonzero;stroke:none"
         d="m 170.76953,35.960938 c -0.39453,0.04297 -0.77734,0.226562 -1.08984,0.539062 -0.0508,0.04297 -0.082,0.08203 -0.082,0.07422 0,-0.01172 0.0312,-0.136719 0.0625,-0.300781 l 0.0625,-0.28125 h -0.23047 c -0.13282,0 -0.23828,0 -0.23828,0.01172 0,0 -0.14454,0.664063 -0.32032,1.472656 -0.16797,0.808594 -0.3125,1.476563 -0.3125,1.484376 0,0.01172 0.0117,0.01172 0.25,0.01172 h 0.25 v -0.01172 c 0.008,-0.0078 0.0703,-0.339844 0.15625,-0.734376 0.0898,-0.394531 0.16407,-0.75 0.17578,-0.78125 0.125,-0.46875 0.53907,-0.871093 1.02735,-0.996093 0.0625,-0.01953 0.16406,-0.03125 0.25,-0.04297 l 0.0625,-0.0078 0.0312,-0.125 c 0.008,-0.07422 0.0312,-0.175782 0.0508,-0.230469 l 0.0195,-0.08203 h -0.0508 c -0.0312,0 -0.0625,0 -0.0742,0 z m 0,0"
         id="path13227" />
      <path
         style="fill:#000000;fill-opacity:1;fill-rule:nonzero;stroke:none"
         d="m 170.80859,37.910156 c 0,0.0078 0.17969,0.226563 0.38672,0.507813 l 0.36328,0.488281 -0.0117,0.01172 c -0.125,0.101562 -1.20312,1.046875 -1.20312,1.046875 h 0.42578 l 0.45703,-0.4375 0.46485,-0.433594 0.58203,0.871094 h 0.42578 l -0.10156,-0.136719 c -0.35547,-0.464844 -0.6875,-0.910156 -0.6875,-0.921875 -0.008,0 0.23046,-0.199219 0.53906,-0.476562 0.30469,-0.261719 0.5625,-0.480469 0.57422,-0.5 l 0.0312,-0.01953 h -0.42578 l -0.42579,0.382813 c -0.38671,0.34375 -0.41796,0.375 -0.42578,0.363281 0,0 -0.125,-0.175781 -0.26953,-0.375 l -0.26172,-0.371094 h -0.21875 c -0.17578,0 -0.21875,0 -0.21875,0 z m 0,0"
         id="path13229" />
      <path
         style="fill:#000000;fill-opacity:1;fill-rule:nonzero;stroke:none"
         d="m 170.72656,43.90625 c -0.39453,0.03906 -0.77734,0.226562 -1.08984,0.539062 -0.0508,0.04297 -0.082,0.08203 -0.082,0.07422 0,-0.01172 0.0312,-0.136719 0.0625,-0.300781 l 0.0625,-0.28125 h -0.23047 c -0.13281,0 -0.23828,0 -0.23828,0.0078 0,0 -0.14453,0.667969 -0.32032,1.476563 -0.16796,0.808594 -0.3125,1.472656 -0.3125,1.484375 0,0.01172 0.0117,0.01172 0.25,0.01172 h 0.25 v -0.01172 c 0.008,-0.01172 0.0703,-0.34375 0.15625,-0.738281 0.0898,-0.394531 0.16407,-0.746094 0.17579,-0.777344 0.125,-0.46875 0.53906,-0.871094 1.02734,-0.996094 0.0625,-0.01953 0.16406,-0.03125 0.25,-0.04297 l 0.0625,-0.01172 0.0312,-0.121094 c 0.008,-0.07422 0.0312,-0.179688 0.0508,-0.230469 l 0.0195,-0.08203 h -0.0508 c -0.0312,0 -0.0625,0 -0.0742,0 z m 0,0"
         id="path13231" />
      <path
         style="fill:#000000;fill-opacity:1;fill-rule:nonzero;stroke:none"
         d="m 170.80859,45.855469 c 0,0 0.5625,2.023437 0.5625,2.042969 0.0117,0.01172 0,0.02344 -0.10547,0.1875 -0.1875,0.269531 -0.22656,0.324218 -0.28906,0.382812 -0.0937,0.08594 -0.14453,0.117188 -0.25,0.105469 -0.11328,-0.01172 -0.21875,-0.03125 -0.3125,-0.07422 -0.0508,-0.01953 -0.0508,-0.01953 -0.0508,-0.0078 -0.0117,0.01953 -0.043,0.320312 -0.043,0.320312 0,0.01172 0.0937,0.01953 0.17969,0.03125 0.0391,0.01172 0.10156,0.01172 0.16406,0.01172 0.125,0 0.15625,-0.01172 0.23828,-0.04297 0.125,-0.0625 0.23828,-0.175781 0.38672,-0.375 0.0586,-0.08984 0.082,-0.121094 0.83985,-1.253906 0.36328,-0.53125 0.70703,-1.050782 0.77734,-1.152344 l 0.11328,-0.175781 h -0.38281 l -0.21875,0.320312 c -0.32031,0.488281 -0.47656,0.738281 -0.6211,0.996094 -0.10546,0.175781 -0.19921,0.363281 -0.20703,0.4375 -0.0117,0.01172 -0.0117,0.01953 -0.0117,0.01953 0,0 0,-0.03125 0,-0.0625 0.0117,-0.125 -0.0312,-0.425781 -0.125,-0.808594 -0.043,-0.1875 -0.19531,-0.78125 -0.22656,-0.894531 0,-0.0078 -0.0234,-0.0078 -0.21094,-0.0078 z m 0,0"
         id="path13233" />
      <path
         style="fill:#000000;fill-opacity:1;fill-rule:nonzero;stroke:none"
         d="M 173.58594,33.613281 V 33.8125 h 1.37109 v 15.097656 h -1.37109 v 0.394532 h 1.76562 V 33.40625 h -1.76562 z m 0,0"
         id="path13235" />
      <path
         style="fill:#ffffff;fill-opacity:1;fill-rule:nonzero;stroke:#ffffff;stroke-width:7.17069;stroke-linecap:butt;stroke-linejoin:miter;stroke-miterlimit:4;stroke-opacity:1"
         d="m 807.47279,144.57633 h 91.53408 v 101.80182 h -91.53408 z m 0,0"
         transform="matrix(0.14723,0,0,0.14723,0.44,0.0616828)"
         id="path13237" />
      <path
         style="fill:#000000;fill-opacity:1;fill-rule:nonzero;stroke:none"
         d="m 118.66406,28.832031 v 7.953125 h 1.77735 v -0.394531 h -1.3711 V 21.292969 h 1.3711 v -0.40625 h -1.77735 z m 0,0"
         id="path13239" />
      <path
         style="fill:#000000;fill-opacity:1;fill-rule:nonzero;stroke:none"
         d="m 121.18359,24.679688 c -0.0195,0.0078 -0.0391,0.03125 -0.0391,0.03906 -0.0234,0.03125 -0.0234,0.04297 -0.0234,0.07422 0,0.04297 0,0.05078 0.0234,0.08203 0,0.01172 0.0195,0.03125 0.0391,0.04297 l 0.0312,0.01172 h 3.84375 l 0.0312,-0.01172 c 0.0195,-0.01172 0.0391,-0.03125 0.0508,-0.04297 0.0117,-0.03125 0.0195,-0.03906 0.0195,-0.08203 0,-0.03125 -0.008,-0.04297 -0.0195,-0.07422 -0.0117,-0.0078 -0.0312,-0.03125 -0.0508,-0.03906 l -0.0312,-0.01172 h -3.84375 z m 0,0"
         id="path13241" />
      <path
         style="fill:#000000;fill-opacity:1;fill-rule:nonzero;stroke:none"
         d="m 128.40234,23.445312 c -0.39453,0.03906 -0.78125,0.226563 -1.09375,0.539063 -0.0508,0.03906 -0.082,0.08203 -0.082,0.07031 0,-0.0078 0.0312,-0.132813 0.0625,-0.300782 l 0.0625,-0.277344 H 127.125 c -0.13672,0 -0.24219,0 -0.24219,0.0078 0,0 -0.14453,0.664063 -0.32031,1.476563 -0.16406,0.808593 -0.3125,1.472656 -0.3125,1.484374 0,0.0078 0.0117,0.0078 0.25,0.0078 h 0.25 v -0.0078 c 0.0117,-0.01172 0.0742,-0.34375 0.15625,-0.738281 0.0937,-0.394531 0.16406,-0.746093 0.17578,-0.777343 0.125,-0.46875 0.53906,-0.875 1.02734,-1 0.0625,-0.01953 0.16797,-0.03125 0.25,-0.03906 l 0.0625,-0.01172 0.0312,-0.125 c 0.0117,-0.07031 0.0312,-0.175781 0.0508,-0.226562 l 0.0234,-0.08203 h -0.0547 c -0.0312,0 -0.0625,0 -0.0703,0 z m 0,0"
         id="path13243" />
      <path
         style="fill:#000000;fill-opacity:1;fill-rule:nonzero;stroke:none"
         d="m 128.44141,25.390625 c 0,0.01172 0.17578,0.230469 0.38281,0.511719 l 0.36328,0.484375 -0.0117,0.01172 c -0.12109,0.105468 -1.20312,1.050781 -1.20312,1.050781 h 0.42578 l 0.45703,-0.4375 0.46875,-0.4375 0.57812,0.875 h 0.42969 l -0.10549,-0.13672 c -0.35547,-0.46875 -0.6875,-0.914062 -0.6875,-0.925781 -0.008,0 0.23047,-0.195313 0.54297,-0.476563 0.30078,-0.257812 0.55859,-0.476562 0.57031,-0.496094 l 0.0312,-0.02344 h -0.42578 l -0.42578,0.386719 c -0.38281,0.339844 -0.41406,0.371094 -0.42578,0.363281 0,0 -0.125,-0.179687 -0.26953,-0.375 l -0.26172,-0.375 h -0.21484 c -0.17969,0 -0.21875,0 -0.21875,0 z m 0,0"
         id="path13245" />
      <path
         style="fill:#000000;fill-opacity:1;fill-rule:nonzero;stroke:none"
         d="m 121.14063,32.625 c -0.0195,0.0078 -0.0391,0.03125 -0.0391,0.03906 -0.0234,0.03125 -0.0234,0.04297 -0.0234,0.07422 0,0.04297 0,0.05078 0.0234,0.08203 0,0.01172 0.0195,0.03125 0.0391,0.04297 l 0.0312,0.0078 h 3.84375 l 0.0312,-0.0078 c 0.0195,-0.01172 0.0391,-0.03125 0.0508,-0.04297 0.0117,-0.03125 0.0195,-0.03906 0.0195,-0.08203 0,-0.03125 -0.008,-0.04297 -0.0195,-0.07422 -0.0117,-0.0078 -0.0312,-0.03125 -0.0508,-0.03906 l -0.0312,-0.01172 h -3.84375 z m 0,0"
         id="path13247" />
      <path
         style="fill:#000000;fill-opacity:1;fill-rule:nonzero;stroke:none"
         d="m 128.35937,31.386719 c -0.39453,0.04297 -0.78124,0.230469 -1.09374,0.542969 -0.0508,0.03906 -0.082,0.08203 -0.082,0.07031 0,-0.0078 0.0312,-0.132812 0.0625,-0.300781 l 0.0625,-0.28125 h -0.22656 c -0.13672,0 -0.24219,0 -0.24219,0.01172 0,0 -0.14453,0.664062 -0.32031,1.472656 -0.16406,0.8125 -0.3125,1.476562 -0.3125,1.484375 0,0.01172 0.0117,0.01172 0.25,0.01172 h 0.25 v -0.01172 c 0.0117,-0.0078 0.0742,-0.339844 0.15625,-0.734375 0.0937,-0.394532 0.16406,-0.75 0.17578,-0.78125 0.125,-0.464844 0.53907,-0.871094 1.02735,-0.996094 0.0625,-0.01953 0.16796,-0.03125 0.25,-0.03906 l 0.0625,-0.01172 0.0312,-0.125 c 0.008,-0.07031 0.0312,-0.175781 0.0508,-0.226563 l 0.0195,-0.08594 h -0.0508 c -0.0312,0 -0.0625,0 -0.0703,0 z m 0,0"
         id="path13249" />
      <path
         style="fill:#000000;fill-opacity:1;fill-rule:nonzero;stroke:none"
         d="m 128.4375,33.335938 c 0,0 0.5625,2.023437 0.5625,2.046874 0.0117,0.0078 0,0.01953 -0.10547,0.1875 -0.18359,0.269532 -0.22656,0.320313 -0.28906,0.382813 -0.0937,0.08203 -0.14453,0.113281 -0.25,0.101563 -0.11328,-0.0078 -0.21875,-0.02734 -0.3125,-0.07031 -0.0508,-0.01953 -0.0508,-0.01953 -0.0508,-0.01172 -0.008,0.02344 -0.043,0.324219 -0.043,0.324219 0,0.0078 0.0937,0.01953 0.17969,0.03125 0.0391,0.0078 0.10156,0.0078 0.16406,0.0078 0.125,0 0.15625,-0.0078 0.23828,-0.03906 0.125,-0.0625 0.24219,-0.175781 0.38672,-0.375 0.0625,-0.09375 0.082,-0.125 0.83984,-1.257813 0.36328,-0.527343 0.70703,-1.046874 0.77735,-1.152343 l 0.11718,-0.175781 h -0.38672 l -0.21875,0.324218 c -0.32031,0.484375 -0.47656,0.734375 -0.62109,0.996094 -0.10547,0.175781 -0.19922,0.363281 -0.20703,0.433594 -0.0117,0.01172 -0.0117,0.02344 -0.0117,0.02344 0,0 0,-0.03125 0,-0.0625 0.0117,-0.125 -0.0312,-0.425781 -0.125,-0.8125 -0.0391,-0.183593 -0.19531,-0.777343 -0.22656,-0.890625 0,-0.01172 -0.0234,-0.01172 -0.20703,-0.01172 z m 0,0"
         id="path13251" />
      <path
         style="fill:#000000;fill-opacity:1;fill-rule:nonzero;stroke:none"
         d="m 131.21484,21.097656 v 0.195313 h 1.3711 v 15.097656 h -1.3711 v 0.394531 h 1.76563 V 20.886719 h -1.76563 z m 0,0"
         id="path13253" />
      <path
         style="fill:#000000;fill-opacity:1;fill-rule:nonzero;stroke:#000000;stroke-width:5.66929;stroke-linecap:butt;stroke-linejoin:miter;stroke-miterlimit:4;stroke-opacity:1"
         d="m 1415.1795,270.73417 61.2084,-25.33769"
         transform="matrix(0.14723,0,0,0.14723,0.44,0.0616828)"
         id="path13255" />
      <path
         style="fill:#000000;fill-opacity:1;fill-rule:evenodd;stroke:#000000;stroke-width:1.39673;stroke-linecap:butt;stroke-linejoin:miter;stroke-miterlimit:4;stroke-opacity:1"
         d="m -1167.1283,-731.43746 5.2441,-5.23015 -18.3316,5.2481 18.3403,5.23551 z m 0,0"
         transform="matrix(-0.14723,0.0609847,-0.0609847,-0.14723,0.44,0.0616828)"
         id="path13257" />
      <path
         style="fill:#636363;fill-opacity:1;fill-rule:nonzero;stroke:#636363;stroke-width:8.50394;stroke-linecap:butt;stroke-linejoin:miter;stroke-miterlimit:4;stroke-opacity:1"
         d="m -95.784688,-1454.0748 -46.828302,46.8548"
         transform="matrix(0,-0.14723,-0.14723,0,0.44,0.0616828)"
         id="path13259" />
      <path
         style="fill:#ffffff;fill-opacity:1;fill-rule:nonzero;stroke:#000000;stroke-width:1.74395;stroke-linecap:butt;stroke-linejoin:miter;stroke-miterlimit:4;stroke-opacity:1"
         d="m -882.71951,756.76778 c -0.005,10.32448 -8.37846,18.69481 -18.70295,18.68991 -10.31173,0.012 -18.68206,-8.36153 -18.67716,-18.68601 -0.008,-10.34143 8.34878,-18.699 18.6902,-18.70685 10.32449,0.005 18.69481,8.37846 18.68991,18.70295 z m 0,0"
         transform="matrix(-0.14723,0.110786,0.110786,0.14723,0.44,0.0616828)"
         id="path13261" />
      <path
         style="fill:none;stroke:#636363;stroke-width:8.50394;stroke-linecap:butt;stroke-linejoin:miter;stroke-miterlimit:4;stroke-opacity:1"
         d="M 1389.6826,254.52335 V 188.27391"
         transform="matrix(0.14723,0,0,0.14723,0.44,0.0616828)"
         id="path13263" />
      <path
         style="fill:#5454ff;fill-opacity:1;fill-rule:nonzero;stroke:#000000;stroke-width:1.36503;stroke-linecap:butt;stroke-linejoin:miter;stroke-miterlimit:4;stroke-opacity:1"
         d="m -942.03081,563.00008 c -0.005,12.79218 -10.3727,23.16695 -23.16489,23.16171 -12.79218,-0.005 -23.1542,-10.35576 -23.14896,-23.14795 0.005,-12.79218 10.3727,-23.16695 23.14794,-23.14896 12.77944,-0.0117 23.15421,10.35576 23.16591,23.1352 z m 0,0"
         transform="matrix(-0.14723,-0.110786,0.110786,-0.14723,0.44,0.0616828)"
         id="path13265" />
      <path
         style="fill:#636363;fill-opacity:1;fill-rule:nonzero;stroke:#636363;stroke-width:8.50394;stroke-linecap:butt;stroke-linejoin:miter;stroke-miterlimit:4;stroke-opacity:1"
         d="m 1456.4096,348.94938 -46.8548,-46.8283"
         transform="matrix(0.14723,0,0,0.14723,0.44,0.0616828)"
         id="path13267" />
      <path
         style="fill:#ffffff;fill-opacity:1;fill-rule:nonzero;stroke:#000000;stroke-width:1.74395;stroke-linecap:butt;stroke-linejoin:miter;stroke-miterlimit:4;stroke-opacity:1"
         d="m -1097.8781,473.93412 c 0,10.32448 -8.3785,18.69481 -18.703,18.68991 -10.3245,-0.005 -18.6948,-8.37847 -18.6899,-18.70295 0,-10.32449 8.3785,-18.69481 18.703,-18.68991 10.3244,0.005 18.6948,8.37847 18.6899,18.70295 z m 0,0"
         transform="matrix(-0.14723,-0.110786,0.110786,-0.14723,0.44,0.0616828)"
         id="path13269" />
      <path
         style="fill:#ff5454;fill-opacity:1;fill-rule:nonzero;stroke:#000000;stroke-width:1.36503;stroke-linecap:butt;stroke-linejoin:miter;stroke-miterlimit:4;stroke-opacity:1"
         d="m -998.85624,487.48155 c -0.005,12.79219 -10.38546,23.15002 -23.16486,23.16171 -12.7922,-0.005 -23.167,-10.3727 -23.1617,-23.16488 0.018,-12.77524 10.3854,-23.15001 23.1479,-23.14896 12.7922,0.005 23.16696,10.3727 23.17866,23.15213 z m 0,0"
         transform="matrix(-0.14723,-0.110786,0.110786,-0.14723,0.44,0.0616828)"
         id="path13271" />
      <g
         clip-path="url(#clip27)"
         clip-rule="nonzero"
         id="g13275">
        <path
           style="fill:none;stroke:#e8aeae;stroke-width:2.36628;stroke-linecap:butt;stroke-linejoin:miter;stroke-miterlimit:4;stroke-dasharray:9.46508, 18.9301;stroke-opacity:1"
           d="m -899.91934,487.48222 c -0.004,67.44619 -54.6732,122.11444 -122.10666,122.12763 -67.4462,-0.004 -122.1144,-54.6732 -122.1107,-122.11939 0,-67.44619 54.6732,-122.11444 122.1067,-122.12763 67.44616,0.004 122.11441,54.6732 122.11066,122.11939 z m 0,0"
           transform="matrix(-0.14723,-0.110786,0.110786,-0.14723,0.44,0.0616828)"
           id="path13273" />
      </g>
      <g
         clip-path="url(#clip28)"
         clip-rule="nonzero"
         id="g13279">
        <path
           style="fill:none;stroke:#a8a8ff;stroke-width:2.36628;stroke-linecap:butt;stroke-linejoin:miter;stroke-miterlimit:4;stroke-dasharray:9.46508, 18.9301;stroke-opacity:1"
           d="m -843.19136,563.04754 c -0.0165,67.42925 -54.68595,122.0975 -122.11939,122.11069 -67.44615,-0.004 -122.11445,-54.6732 -122.11065,-122.11939 0,-67.44619 54.6732,-122.11444 122.11935,-122.11069 67.43344,-0.0132 122.11444,54.6732 122.11069,122.11939 z m 0,0"
           transform="matrix(-0.14723,-0.110786,0.110786,-0.14723,0.44,0.0616828)"
           id="path13277" />
      </g>
      <path
         style="fill:#ffffff;fill-opacity:1;fill-rule:nonzero;stroke:#ffffff;stroke-width:5.67074;stroke-linecap:butt;stroke-linejoin:miter;stroke-miterlimit:4;stroke-opacity:1"
         d="m 1512.9485,230.96328 h 56.8572 v 102.5447 h -56.8572 z m 0,0"
         transform="matrix(0.14723,0,0,0.14723,0.44,0.0616828)"
         id="path13281" />
      <path
         style="fill:#000000;fill-opacity:1;fill-rule:nonzero;stroke:none"
         d="m 222.78906,41.605469 v 7.953125 h 1.77344 v -0.394532 h -1.37109 V 34.066406 h 1.37109 v -0.40625 h -1.77344 z m 0,0"
         id="path13283" />
      <path
         style="fill:#000000;fill-opacity:1;fill-rule:nonzero;stroke:none"
         d="m 227.375,36.21875 c -0.39453,0.03906 -0.78125,0.226562 -1.08984,0.539062 -0.0547,0.03906 -0.0859,0.08203 -0.0859,0.07031 0,-0.0078 0.0312,-0.132813 0.0625,-0.300781 L 226.32422,36.25 h -0.22656 c -0.13672,0 -0.23829,0 -0.23829,0.0078 0,0 -0.14843,0.664063 -0.32421,1.476563 -0.16407,0.808594 -0.3125,1.472656 -0.3125,1.484375 0,0.0078 0.0117,0.0078 0.25,0.0078 h 0.25 v -0.0078 c 0.0117,-0.01172 0.0742,-0.34375 0.15625,-0.738281 0.0937,-0.394531 0.16406,-0.746094 0.17578,-0.777344 0.125,-0.46875 0.53906,-0.875 1.02734,-0.996094 0.0625,-0.02344 0.16797,-0.03125 0.25,-0.04297 l 0.0625,-0.01172 0.0312,-0.125 c 0.0117,-0.07031 0.0312,-0.175782 0.0508,-0.226563 L 227.5,36.21875 h -0.0547 c -0.0312,0 -0.0625,0 -0.0703,0 z m 0,0"
         id="path13285" />
      <path
         style="fill:#000000;fill-opacity:1;fill-rule:nonzero;stroke:none"
         d="m 227.41406,38.164062 c 0,0.01172 0.17578,0.230469 0.38281,0.511719 l 0.36329,0.488281 -0.008,0.0078 c -0.125,0.105469 -1.20703,1.050781 -1.20703,1.050781 h 0.42578 l 0.45703,-0.4375 0.46875,-0.4375 0.58204,0.875 h 0.42578 l -0.10547,-0.136718 c -0.35156,-0.46875 -0.6836,-0.914063 -0.6836,-0.921876 -0.0117,0 0.22657,-0.199218 0.53907,-0.480468 0.30078,-0.257813 0.5625,-0.476563 0.57031,-0.496094 l 0.0312,-0.02344 h -0.42578 l -0.42578,0.386719 c -0.38282,0.339844 -0.41407,0.371094 -0.42578,0.363281 0,0 -0.125,-0.175781 -0.26954,-0.375 l -0.25781,-0.375 h -0.21875 c -0.17578,0 -0.21875,0 -0.21875,0 z m 0,0"
         id="path13287" />
      <path
         style="fill:#000000;fill-opacity:1;fill-rule:nonzero;stroke:none"
         d="m 227.33203,44.160156 c -0.39453,0.04297 -0.78125,0.230469 -1.08984,0.542969 -0.0547,0.03906 -0.0859,0.08203 -0.0859,0.07031 0,-0.0078 0.0312,-0.132813 0.0625,-0.300782 l 0.0625,-0.28125 h -0.22656 c -0.13672,0 -0.23828,0 -0.23828,0.01172 0,0 -0.14454,0.664063 -0.32422,1.472656 -0.16407,0.8125 -0.3086,1.476563 -0.3086,1.488281 0,0.0078 0.008,0.0078 0.2461,0.0078 h 0.25 v -0.0078 c 0.0117,-0.01172 0.0742,-0.34375 0.15625,-0.738281 0.0937,-0.394531 0.16797,-0.75 0.17578,-0.777343 0.125,-0.46875 0.53906,-0.875 1.02734,-1 0.0625,-0.01953 0.16797,-0.03125 0.25,-0.03906 l 0.0625,-0.01172 0.0312,-0.125 c 0.0117,-0.07031 0.0312,-0.175781 0.0508,-0.226562 l 0.0234,-0.08594 h -0.0547 c -0.0273,0 -0.0586,0 -0.0703,0 z m 0,0"
         id="path13289" />
      <path
         style="fill:#000000;fill-opacity:1;fill-rule:nonzero;stroke:none"
         d="m 227.41406,46.109375 c 0,0 0.5586,2.023437 0.5586,2.046875 0.0117,0.01172 0,0.01953 -0.10157,0.1875 -0.1875,0.269531 -0.23047,0.320312 -0.29297,0.382812 -0.0937,0.08203 -0.14453,0.113282 -0.24609,0.105469 -0.11719,-0.01172 -0.21875,-0.03125 -0.3125,-0.07422 -0.0547,-0.01953 -0.0547,-0.01953 -0.0547,-0.01172 -0.008,0.02344 -0.0391,0.324218 -0.0391,0.324218 0,0.0078 0.0937,0.01953 0.17578,0.03125 0.043,0.0078 0.10547,0.0078 0.16797,0.0078 0.12109,0 0.15234,-0.0078 0.23828,-0.03906 0.125,-0.0625 0.23828,-0.179687 0.38281,-0.375 0.0625,-0.09375 0.082,-0.125 0.83985,-1.257812 0.36328,-0.527344 0.70703,-1.046875 0.78125,-1.152344 l 0.11328,-0.175781 h -0.38281 l -0.21875,0.320313 c -0.32422,0.492187 -0.48047,0.738281 -0.625,1 -0.10157,0.175781 -0.19532,0.363281 -0.20703,0.433593 -0.0117,0.01172 -0.0117,0.02344 -0.0117,0.02344 0,0 0,-0.03125 0,-0.0625 0.0117,-0.125 -0.0312,-0.425781 -0.1211,-0.8125 -0.043,-0.183594 -0.19922,-0.777344 -0.23047,-0.890625 0,-0.01172 -0.0195,-0.01172 -0.20703,-0.01172 z m 0,0"
         id="path13291" />
      <path
         style="fill:#000000;fill-opacity:1;fill-rule:nonzero;stroke:none"
         d="m 230.19141,33.871094 v 0.195312 h 1.37109 v 15.097656 h -1.37109 v 0.394532 h 1.76562 V 33.660156 h -1.76562 z m 0,0"
         id="path13293" />
      <path
         style="fill:#000000;fill-opacity:1;fill-rule:nonzero;stroke:#000000;stroke-width:5.66929;stroke-linecap:butt;stroke-linejoin:miter;stroke-miterlimit:4;stroke-opacity:1"
         d="m 1415.1795,174.95503 61.2084,25.3377"
         transform="matrix(0.14723,0,0,0.14723,0.44,0.0616828)"
         id="path13295" />
      <path
         style="fill:#000000;fill-opacity:1;fill-rule:evenodd;stroke:#000000;stroke-width:1.39673;stroke-linecap:butt;stroke-linejoin:miter;stroke-miterlimit:4;stroke-opacity:1"
         d="m -1324.7033,351.01804 5.2528,-5.25345 -18.331,5.25815 18.3222,5.22545 z m 0,0"
         transform="matrix(-0.14723,-0.0609847,0.0609847,-0.14723,0.44,0.0616828)"
         id="path13297" />
      <path
         style="fill:#ffffff;fill-opacity:1;fill-rule:nonzero;stroke:none"
         d="m 221.00391,15.769531 h 12.58593 v 14.957031 h -12.58593 z m 0,0"
         id="path13299" />
      <g
         clip-path="url(#clip29)"
         clip-rule="nonzero"
         id="g13303">
        <path
           style="fill:none;stroke:#ffffff;stroke-width:6.92218;stroke-linecap:butt;stroke-linejoin:miter;stroke-miterlimit:4;stroke-opacity:1"
           d="m 1498.0908,106.68918 h 85.4849 v 101.58956 h -85.4849 z m 0,0"
           transform="matrix(0.14723,0,0,0.14723,0.44,0.0616828)"
           id="path13301" />
      </g>
      <path
         style="fill:#000000;fill-opacity:1;fill-rule:nonzero;stroke:none"
         d="m 220.10156,23.238281 v 7.953125 h 1.77735 v -0.394531 h -1.3711 V 15.699219 h 1.3711 v -0.40625 h -1.77735 z m 0,0"
         id="path13305" />
      <path
         style="fill:#000000;fill-opacity:1;fill-rule:nonzero;stroke:none"
         d="m 227.26172,17.847656 c -0.39453,0.04297 -0.77735,0.230469 -1.08985,0.542969 -0.0508,0.03906 -0.082,0.08203 -0.082,0.07031 0,-0.0078 0.0312,-0.132813 0.0625,-0.300782 l 0.0625,-0.28125 h -0.23047 c -0.13281,0 -0.23828,0 -0.23828,0.01172 0,0 -0.14453,0.664063 -0.32031,1.472656 -0.16797,0.8125 -0.3125,1.476563 -0.3125,1.488281 0,0.0078 0.0117,0.0078 0.25,0.0078 h 0.25 v -0.0078 c 0.008,-0.01172 0.0703,-0.34375 0.15625,-0.738281 0.0898,-0.394531 0.16406,-0.75 0.17578,-0.78125 0.125,-0.464843 0.53906,-0.871093 1.02735,-0.996093 0.0625,-0.01953 0.16406,-0.03125 0.25,-0.03906 l 0.0625,-0.01172 0.0312,-0.125 c 0.008,-0.07031 0.0312,-0.175781 0.0508,-0.226562 l 0.0195,-0.08594 h -0.0508 c -0.0312,0 -0.0625,0 -0.0742,0 z m 0,0"
         id="path13307" />
      <path
         style="fill:#000000;fill-opacity:1;fill-rule:nonzero;stroke:none"
         d="m 227.30469,19.796875 c 0,0.01172 0.17578,0.230469 0.38281,0.507813 l 0.36328,0.488281 -0.0117,0.01172 c -0.12109,0.105468 -1.20312,1.046874 -1.20312,1.046874 h 0.42578 l 0.45703,-0.433593 0.46875,-0.4375 0.57812,0.871093 h 0.42579 l -0.10157,-0.132812 c -0.35547,-0.46875 -0.6875,-0.914062 -0.6875,-0.925781 -0.008,0 0.23047,-0.195313 0.54297,-0.476563 0.30078,-0.257812 0.5586,-0.476562 0.57031,-0.5 l 0.0312,-0.01953 h -0.42578 l -0.42578,0.382813 c -0.38281,0.34375 -0.41406,0.375 -0.42578,0.367187 0,0 -0.125,-0.179687 -0.26953,-0.375 l -0.26172,-0.375 h -0.21484 c -0.17969,0 -0.21875,0 -0.21875,0 z m 0,0"
         id="path13309" />
      <path
         style="fill:#000000;fill-opacity:1;fill-rule:nonzero;stroke:none"
         d="m 222.57812,27.03125 c -0.0195,0.0078 -0.0391,0.03125 -0.0391,0.03906 -0.0234,0.03125 -0.0234,0.04297 -0.0234,0.07422 0,0.03906 0,0.05078 0.0234,0.08203 0,0.01172 0.0195,0.03125 0.0391,0.04297 l 0.0312,0.0078 h 3.84375 l 0.0312,-0.0078 c 0.0195,-0.01172 0.0391,-0.03125 0.0508,-0.04297 0.0117,-0.03125 0.0195,-0.04297 0.0195,-0.08203 0,-0.03125 -0.008,-0.04297 -0.0195,-0.07422 -0.0117,-0.0078 -0.0312,-0.03125 -0.0508,-0.03906 l -0.0312,-0.01172 h -3.84375 z m 0,0"
         id="path13311" />
      <path
         style="fill:#000000;fill-opacity:1;fill-rule:nonzero;stroke:none"
         d="m 229.79687,25.792969 c -0.39453,0.04297 -0.78125,0.230469 -1.09375,0.539062 -0.0508,0.04297 -0.082,0.08594 -0.082,0.07422 0,-0.01172 0.0312,-0.132812 0.0625,-0.300781 l 0.0625,-0.28125 h -0.22656 c -0.13672,0 -0.24219,0 -0.24219,0.01172 0,0 -0.14453,0.664062 -0.32031,1.472656 -0.16406,0.8125 -0.3125,1.476562 -0.3125,1.484375 0,0.01172 0.0117,0.01172 0.25,0.01172 h 0.25 v -0.01172 c 0.0117,-0.0078 0.0742,-0.339844 0.15625,-0.734375 0.0937,-0.394532 0.16406,-0.75 0.17578,-0.78125 0.125,-0.464844 0.53906,-0.871094 1.02735,-0.996094 0.0625,-0.01953 0.16796,-0.03125 0.25,-0.03906 l 0.0625,-0.01172 0.0312,-0.125 c 0.0117,-0.07422 0.0312,-0.175781 0.0508,-0.226563 l 0.0195,-0.08594 h -0.0508 c -0.0312,0 -0.0625,0 -0.0703,0 z m 0,0"
         id="path13313" />
      <path
         style="fill:#000000;fill-opacity:1;fill-rule:nonzero;stroke:none"
         d="m 229.875,27.742188 c 0,0 0.5625,2.023437 0.5625,2.046874 0.0117,0.0078 0,0.01953 -0.10547,0.1875 -0.1875,0.269532 -0.22656,0.320313 -0.28906,0.382813 -0.0937,0.08203 -0.14453,0.113281 -0.25,0.101563 -0.11328,-0.0078 -0.21875,-0.03125 -0.3125,-0.07031 -0.0508,-0.01953 -0.0508,-0.01953 -0.0508,-0.01172 -0.008,0.01953 -0.043,0.324219 -0.043,0.324219 0,0.0078 0.0937,0.01953 0.17969,0.03125 0.0391,0.0078 0.10156,0.0078 0.16406,0.0078 0.125,0 0.15625,-0.0078 0.23828,-0.03906 0.125,-0.0625 0.24219,-0.179687 0.38672,-0.375 0.0625,-0.09375 0.082,-0.125 0.83984,-1.257813 0.36328,-0.527343 0.70703,-1.046874 0.77735,-1.152343 l 0.11718,-0.175781 h -0.38672 l -0.21484,0.320312 c -0.32422,0.488281 -0.48047,0.738281 -0.625,1 -0.10547,0.175781 -0.19922,0.363281 -0.20703,0.433594 -0.0117,0.01172 -0.0117,0.01953 -0.0117,0.01953 0,0 0,-0.02734 0,-0.05859 0.0117,-0.125 -0.0312,-0.425781 -0.125,-0.8125 -0.0391,-0.1875 -0.19531,-0.777343 -0.22656,-0.890625 0,-0.01172 -0.0234,-0.01172 -0.20703,-0.01172 z m 0,0"
         id="path13315" />
      <g
         clip-path="url(#clip30)"
         clip-rule="nonzero"
         id="g13319">
        <path
           style="fill:#000000;fill-opacity:1;fill-rule:nonzero;stroke:none"
           d="m 232.65234,15.5 v 0.199219 h 1.3711 v 15.097656 h -1.3711 v 0.394531 h 1.76563 V 15.292969 h -1.76563 z m 0,0"
           id="path13317" />
      </g>
      <path
         style="fill:none;stroke:#000000;stroke-width:5.66929;stroke-linecap:butt;stroke-linejoin:miter;stroke-miterlimit:4;stroke-dasharray:45.3543, 22.6772;stroke-opacity:1"
         d="M 745.94597,21.549223 V 418.701"
         transform="matrix(0.14723,0,0,0.14723,0.44,0.0616828)"
         id="path13321" />
    </g>
  </g>
</svg>
