<?xml version="1.0" encoding="UTF-8" standalone="no"?>
<svg
   xmlns:dc="http://purl.org/dc/elements/1.1/"
   xmlns:cc="http://creativecommons.org/ns#"
   xmlns:rdf="http://www.w3.org/1999/02/22-rdf-syntax-ns#"
   xmlns:svg="http://www.w3.org/2000/svg"
   xmlns="http://www.w3.org/2000/svg"
   xmlns:sodipodi="http://sodipodi.sourceforge.net/DTD/sodipodi-0.dtd"
   xmlns:inkscape="http://www.inkscape.org/namespaces/inkscape"
   width="9.828536mm"
   height="11.227675mm"
   viewBox="0 0 9.828536 11.227675"
   version="1.1"
   id="svg11685"
   inkscape:version="1.0.1 (3bc2e813f5, 2020-09-07)"
   sodipodi:docname="fig3.svg">
  <defs
     id="defs11679">
    <clipPath
       id="clip36">
      <rect
         x="0"
         y="0"
         width="107"
         height="122"
         id="rect3128" />
    </clipPath>
    <clipPath
       id="clip37">
      <path
         d="M 0.789062,13 H 106.08984 v 92 H 0.789062 Z m 0,0"
         id="path3107" />
    </clipPath>
    <clipPath
       id="clip38">
      <path
         d="M 32,0.921875 H 86 V 53 H 32 Z m 0,0"
         id="path3110" />
    </clipPath>
    <clipPath
       id="clip39">
      <path
         d="M 0.789062,73 H 39 v 47 H 0.789062 Z m 0,0"
         id="path3113" />
    </clipPath>
    <clipPath
       id="clip40">
      <path
         d="m 18,0.921875 h 2 V 6 h -2 z m 0,0"
         id="path3116" />
    </clipPath>
    <clipPath
       id="clip41">
      <path
         d="m 85,0.921875 h 2 V 6 h -2 z m 0,0"
         id="path3119" />
    </clipPath>
    <clipPath
       id="clip42">
      <path
         d="m 17,115 h 4 v 6.21094 h -4 z m 0,0"
         id="path3122" />
    </clipPath>
    <clipPath
       id="clip43">
      <path
         d="m 85,115 h 4 v 6.21094 h -4 z m 0,0"
         id="path3125" />
    </clipPath>
    <clipPath
       id="clipPath11648">
      <rect
         x="0"
         y="0"
         width="107"
         height="122"
         id="rect11646" />
    </clipPath>
    <clipPath
       id="clipPath11652">
      <path
         d="M 0.789062,13 H 106.08984 v 92 H 0.789062 Z m 0,0"
         id="path11650" />
    </clipPath>
    <clipPath
       id="clipPath11656">
      <path
         d="M 32,0.921875 H 86 V 53 H 32 Z m 0,0"
         id="path11654" />
    </clipPath>
    <clipPath
       id="clipPath11660">
      <path
         d="M 0.789062,73 H 39 v 47 H 0.789062 Z m 0,0"
         id="path11658" />
    </clipPath>
    <clipPath
       id="clipPath11664">
      <path
         d="m 18,0.921875 h 2 V 6 h -2 z m 0,0"
         id="path11662" />
    </clipPath>
    <clipPath
       id="clipPath11668">
      <path
         d="m 85,0.921875 h 2 V 6 h -2 z m 0,0"
         id="path11666" />
    </clipPath>
    <clipPath
       id="clipPath11672">
      <path
         d="m 17,115 h 4 v 6.21094 h -4 z m 0,0"
         id="path11670" />
    </clipPath>
    <clipPath
       id="clipPath11676">
      <path
         d="m 85,115 h 4 v 6.21094 h -4 z m 0,0"
         id="path11674" />
    </clipPath>
  </defs>
  <sodipodi:namedview
     id="base"
     pagecolor="#ffffff"
     bordercolor="#666666"
     borderopacity="1.0"
     inkscape:pageopacity="0.0"
     inkscape:pageshadow="2"
     inkscape:zoom="0.35"
     inkscape:cx="-201.42638"
     inkscape:cy="138.36053"
     inkscape:document-units="mm"
     inkscape:current-layer="layer1"
     inkscape:document-rotation="0"
     showgrid="false"
     fit-margin-top="0"
     fit-margin-left="0"
     fit-margin-right="0"
     fit-margin-bottom="0"
     inkscape:window-width="2014"
     inkscape:window-height="901"
     inkscape:window-x="0"
     inkscape:window-y="1189"
     inkscape:window-maximized="0" />
  <metadata
     id="metadata11682">
    <rdf:RDF>
      <cc:Work
         rdf:about="">
        <dc:format>image/svg+xml</dc:format>
        <dc:type
           rdf:resource="http://purl.org/dc/dcmitype/StillImage" />
        <dc:title></dc:title>
      </cc:Work>
    </rdf:RDF>
  </metadata>
  <g
     inkscape:label="Ebene 1"
     inkscape:groupmode="layer"
     id="layer1"
     transform="translate(-159.1274,-111.55878)">
    <g
       id="use4158"
       clip-path="url(#clip36)"
       transform="matrix(0.09333912,0,0,0.09333912,159.0536,111.47273)">
      <path
         style="fill:#e3d9d9;fill-opacity:1;fill-rule:nonzero;stroke:none"
         d="M 1.160156,14.125 H 105.72266 v 90.38672 H 1.160156 Z m 0,0"
         id="path11872" />
      <g
         clip-path="url(#clip37)"
         clip-rule="nonzero"
         id="g11876">
        <path
           style="fill:none;stroke:#000000;stroke-width:2.26186;stroke-linecap:butt;stroke-linejoin:miter;stroke-miterlimit:4;stroke-opacity:1"
           d="M 1.129782,40.406666 H 321.13743 V 317.03014 H 1.129782 Z m 0,0"
           transform="matrix(0.32675,0,0,0.32675,0.791,0.922122)"
           id="path11874" />
      </g>
      <path
         style="fill:none;stroke:#000000;stroke-width:4.31336;stroke-linecap:butt;stroke-linejoin:miter;stroke-miterlimit:4;stroke-opacity:1"
         d="m 252.30136,28.009478 v 30.78376"
         transform="matrix(0.32675,0,0,0.32675,0.791,0.922122)"
         id="path11878" />
      <path
         style="fill:#000000;fill-opacity:1;fill-rule:evenodd;stroke:#000000;stroke-width:1.15023;stroke-linecap:butt;stroke-linejoin:miter;stroke-miterlimit:4;stroke-opacity:1"
         d="m 63.778414,-252.30136 -7.471786,4.30375 v -8.61945 z m 0,0"
         transform="matrix(0,0.32675,-0.32675,0,0.791,0.922122)"
         id="path11880" />
      <path
         style="fill:none;stroke:#000000;stroke-width:4.31336;stroke-linecap:butt;stroke-linejoin:miter;stroke-miterlimit:4;stroke-opacity:1"
         d="M 44.525918,28.009478 V 110.03176"
         transform="matrix(0.32675,0,0,0.32675,0.791,0.922122)"
         id="path11882" />
      <path
         style="fill:#000000;fill-opacity:1;fill-rule:evenodd;stroke:#000000;stroke-width:1.15023;stroke-linecap:butt;stroke-linejoin:miter;stroke-miterlimit:4;stroke-opacity:1"
         d="m 115.01694,-44.525918 -7.47179,4.303749 v -8.619453 z m 0,0"
         transform="matrix(0,0.32675,-0.32675,0,0.791,0.922122)"
         id="path11884" />
      <path
         style="fill:none;stroke:#000000;stroke-width:4.31336;stroke-linecap:butt;stroke-linejoin:miter;stroke-miterlimit:4;stroke-opacity:1"
         d="M 44.525918,128.10751 V 280.10158"
         transform="matrix(0.32675,0,0,0.32675,0.791,0.922122)"
         id="path11886" />
      <path
         style="fill:#000000;fill-opacity:1;fill-rule:evenodd;stroke:#000000;stroke-width:1.15023;stroke-linecap:butt;stroke-linejoin:miter;stroke-miterlimit:4;stroke-opacity:1"
         d="m 285.0748,-44.525918 -7.45983,4.303749 v -8.619453 z m 0,0"
         transform="matrix(0,0.32675,-0.32675,0,0.791,0.922122)"
         id="path11888" />
      <path
         style="fill:#ffffff;fill-opacity:1;fill-rule:nonzero;stroke:#000000;stroke-width:1.58066;stroke-linecap:butt;stroke-linejoin:miter;stroke-miterlimit:4;stroke-opacity:1"
         d="m 13.957345,115.94942 h 61.089327 v 32.66067 H 13.957345 Z m 0,0"
         transform="matrix(0.32675,0,0,0.32675,0.791,0.922122)"
         id="path11890" />
      <path
         style="fill:none;stroke:#000000;stroke-width:4.31336;stroke-linecap:butt;stroke-linejoin:miter;stroke-miterlimit:4;stroke-opacity:1"
         d="m 134.68946,78.351387 h 79.27267"
         transform="matrix(0.32675,0,0,0.32675,0.791,0.922122)"
         id="path11892" />
      <path
         style="fill:#000000;fill-opacity:1;fill-rule:evenodd;stroke:#000000;stroke-width:1.15023;stroke-linecap:butt;stroke-linejoin:miter;stroke-miterlimit:4;stroke-opacity:1"
         d="m 218.93535,78.351387 -7.45983,4.303749 v -8.619453 z m 0,0"
         transform="matrix(0.32675,0,0,0.32675,0.791,0.922122)"
         id="path11894" />
      <path
         style="fill:#ffffff;fill-opacity:1;fill-rule:nonzero;stroke:none"
         d="m 64.933594,26.589844 c 0,3.277344 -2.65625,5.933594 -5.933594,5.933594 -3.277344,0 -5.933594,-2.65625 -5.933594,-5.933594 0,-3.277344 2.65625,-5.933594 5.933594,-5.933594 3.277344,0 5.933594,2.65625 5.933594,5.933594 z m 0,0"
         id="path11896" />
      <g
         clip-path="url(#clip38)"
         clip-rule="nonzero"
         id="g11900">
        <path
           style="fill:none;stroke:#000000;stroke-width:1.90188;stroke-linecap:round;stroke-linejoin:miter;stroke-miterlimit:23.3;stroke-opacity:1"
           d="m 196.3048,78.554619 c 0,10.030127 -8.1293,18.15943 -18.15943,18.15943 -10.03013,0 -18.15943,-8.129303 -18.15943,-18.15943 0,-10.030126 8.1293,-18.15943 18.15943,-18.15943 10.03013,0 18.15943,8.129304 18.15943,18.15943 z m 0,0"
           transform="matrix(0.32675,0,0,0.32675,0.791,0.922122)"
           id="path11898" />
      </g>
      <path
         style="fill:#000000;fill-opacity:1;fill-rule:nonzero;stroke:none"
         d="m 55.105469,24.316406 c 0,-0.07813 0,-0.167968 -0.09766,-0.167968 -0.101562,0 -0.101562,0.113281 -0.101562,0.183593 v 4.515625 c 0,0.07813 0,0.183594 0.101562,0.183594 0.09766,0 0.09766,-0.08984 0.09766,-0.167969 z m 0.949219,0.01563 c 0,-0.07813 0,-0.183593 -0.101563,-0.183593 -0.08984,0 -0.08984,0.08984 -0.08984,0.167968 v 4.546875 c 0,0.07813 0,0.167969 0.08984,0.167969 0.101563,0 0.101563,-0.113281 0.101563,-0.183594 z m 0,0"
         id="path11902" />
      <path
         style="fill:#000000;fill-opacity:1;fill-rule:nonzero;stroke:none"
         d="m 59.945312,26.585938 c 0,-0.519532 -0.433593,-0.9375 -0.9375,-0.9375 -0.527343,0 -0.957031,0.433593 -0.957031,0.9375 0,0.519531 0.429688,0.949218 0.957031,0.949218 0.503907,0 0.9375,-0.421875 0.9375,-0.949218 z m 0,0"
         id="path11904" />
      <path
         style="fill:#000000;fill-opacity:1;fill-rule:nonzero;stroke:none"
         d="m 62.144531,24.316406 c 0,-0.07813 0,-0.167968 -0.101562,-0.167968 -0.09766,0 -0.09766,0.113281 -0.09766,0.183593 v 4.515625 c 0,0.07813 0,0.183594 0.09766,0.183594 0.101562,0 0.101562,-0.08984 0.101562,-0.167969 z m 0.945313,0.01563 c 0,-0.07813 0,-0.183593 -0.09766,-0.183593 -0.09375,0 -0.09375,0.08984 -0.09375,0.167968 v 4.546875 c 0,0.07813 0,0.167969 0.09375,0.167969 0.09766,0 0.09766,-0.113281 0.09766,-0.183594 z m 0,0"
         id="path11906" />
      <path
         style="fill:none;stroke:#000000;stroke-width:4.31336;stroke-linecap:butt;stroke-linejoin:miter;stroke-miterlimit:4;stroke-opacity:1"
         d="m 253.16211,256.6581 v 16.06733"
         transform="matrix(0.32675,0,0,0.32675,0.791,0.922122)"
         id="path11908" />
      <path
         style="fill:#000000;fill-opacity:1;fill-rule:evenodd;stroke:#000000;stroke-width:1.15023;stroke-linecap:butt;stroke-linejoin:miter;stroke-miterlimit:4;stroke-opacity:1"
         d="m 277.71061,-253.16211 -7.45984,4.31571 v -8.63141 z m 0,0"
         transform="matrix(0,0.32675,-0.32675,0,0.791,0.922122)"
         id="path11910" />
      <path
         style="fill:#ffffff;fill-opacity:1;fill-rule:nonzero;stroke:#000000;stroke-width:2.19717;stroke-linecap:butt;stroke-linejoin:miter;stroke-miterlimit:4;stroke-opacity:1"
         d="m 200.7281,222.29984 h 104.86802 v 36.76119 H 200.7281 Z m 0,0"
         transform="matrix(0.32675,0,0,0.32675,0.791,0.922122)"
         id="path11912" />
      <path
         style="fill:#000000;fill-opacity:1;fill-rule:nonzero;stroke:none"
         d="m 77.914062,77.113281 c 0.05078,-0.136719 0.05078,-0.148437 0.300782,-0.171875 0.160156,-0.02734 0.324218,-0.02734 0.457031,-0.02734 v -0.371093 c -0.222656,0.01172 -0.496094,0.02344 -0.855469,0.02344 -0.300781,0 -0.785156,0 -1.070312,-0.02344 v 0.371093 c 0.199218,0 0.570312,0 0.808594,0.08984 L 76.1875,80.558594 74.78125,76.914062 h 0.757812 v -0.371093 c -0.296874,0.02344 -1.042968,0.02344 -1.378906,0.02344 -0.308594,0 -0.945312,0 -1.21875,-0.02344 v 0.371093 H 73.625 l 0.324219,0.847657 -1.082031,2.796875 -1.40625,-3.644532 h 0.773437 v -0.371093 c -0.3125,0.02344 -1.058594,0.02344 -1.394531,0.02344 -0.308594,0 -0.929688,0 -1.21875,-0.02344 v 0.371093 h 0.6875 l 1.898437,4.9375 c 0.05078,0.125 0.08984,0.199219 0.289063,0.199219 0.199218,0 0.222656,-0.07422 0.273437,-0.199219 l 1.378907,-3.582031 1.378906,3.582031 c 0.05078,0.125 0.07422,0.199219 0.273437,0.199219 0.199219,0 0.238281,-0.07422 0.285157,-0.199219 z m 0,0"
         id="path11914" />
      <path
         style="fill:#000000;fill-opacity:1;fill-rule:nonzero;stroke:none"
         d="m 84.269531,80 c 0,-0.84375 -0.710937,-1.53125 -1.53125,-1.53125 -0.855469,0 -1.554687,0.710938 -1.554687,1.53125 0,0.84375 0.699218,1.542969 1.554687,1.542969 0.820313,0 1.53125,-0.6875 1.53125,-1.542969 z m 0,0"
         id="path11916" />
      <path
         style="fill:#000000;fill-opacity:1;fill-rule:nonzero;stroke:none"
         d="m 89.71875,80.160156 h 2.214844 c 0.109375,0 0.261718,0 0.261718,-0.160156 0,-0.148438 -0.152343,-0.148438 -0.261718,-0.148438 H 89.71875 V 77.625 c 0,-0.113281 0,-0.261719 -0.160156,-0.261719 -0.164063,0 -0.164063,0.148438 -0.164063,0.261719 v 2.226562 h -2.210937 c -0.109375,0 -0.261719,0 -0.261719,0.148438 0,0.160156 0.152344,0.160156 0.261719,0.160156 h 2.210937 v 2.226563 c 0,0.113281 0,0.261719 0.164063,0.261719 0.160156,0 0.160156,-0.148438 0.160156,-0.261719 z m 0,0"
         id="path11918" />
      <path
         style="fill:#000000;fill-opacity:1;fill-rule:nonzero;stroke:none"
         d="m 94.34375,78.804688 v -2.324219 l -1.402344,0.0625 v 0.371093 c 0.484375,0 0.542969,0 0.542969,0.3125 v 4.761719 h 0.375 l 0.386719,-0.445312 c 0.05859,0.0625 0.445312,0.496093 1.15625,0.496093 1.179687,0 2,-0.722656 2,-1.816406 0,-1.058594 -0.746094,-1.800781 -1.902344,-1.800781 -0.570312,0 -0.96875,0.222656 -1.15625,0.382813 z m 0.03906,2.402343 v -1.992187 c 0.222657,-0.285156 0.59375,-0.507813 1.03125,-0.507813 0.96875,0 0.96875,0.957031 0.96875,1.515625 0,0.375 0,0.808594 -0.199218,1.121094 -0.234375,0.320312 -0.59375,0.40625 -0.855469,0.40625 -0.550781,0 -0.859375,-0.433594 -0.945313,-0.542969 z m 0,0"
         id="path11920" />
      <path
         style="fill:none;stroke:#000000;stroke-width:4.31336;stroke-linecap:butt;stroke-linejoin:miter;stroke-miterlimit:4;stroke-opacity:1"
         d="m 253.16211,147.49829 v 15.94778"
         transform="matrix(0.32675,0,0,0.32675,0.791,0.922122)"
         id="path11922" />
      <path
         style="fill:#000000;fill-opacity:1;fill-rule:evenodd;stroke:#000000;stroke-width:1.15023;stroke-linecap:butt;stroke-linejoin:miter;stroke-miterlimit:4;stroke-opacity:1"
         d="m 168.41929,-253.16211 -7.45983,4.31571 v -8.63141 z m 0,0"
         transform="matrix(0,0.32675,-0.32675,0,0.791,0.922122)"
         id="path11924" />
      <path
         style="fill:none;stroke:#000000;stroke-width:4.31336;stroke-linecap:butt;stroke-linejoin:miter;stroke-miterlimit:4;stroke-opacity:1"
         d="m 253.16211,87.78377 v 17.96815"
         transform="matrix(0.32675,0,0,0.32675,0.791,0.922122)"
         id="path11926" />
      <path
         style="fill:#000000;fill-opacity:1;fill-rule:evenodd;stroke:#000000;stroke-width:1.15023;stroke-linecap:butt;stroke-linejoin:miter;stroke-miterlimit:4;stroke-opacity:1"
         d="m 110.72514,-253.16211 -7.45983,4.31571 v -8.63141 z m 0,0"
         transform="matrix(0,0.32675,-0.32675,0,0.791,0.922122)"
         id="path11928" />
      <path
         style="fill:#ffffff;fill-opacity:1;fill-rule:nonzero;stroke:#000000;stroke-width:1.47182;stroke-linecap:butt;stroke-linejoin:miter;stroke-miterlimit:4;stroke-opacity:1"
         d="m 220.32211,64.866306 h 64.06609 v 27.01798 h -64.06609 z m 0,0"
         transform="matrix(0.32675,0,0,0.32675,0.791,0.922122)"
         id="path11930" />
      <path
         style="fill:#000000;fill-opacity:1;fill-rule:nonzero;stroke:none"
         d="m 77.945312,26.433594 c -0.01172,-0.773438 -0.613281,-1.242188 -1.609374,-1.242188 -0.933594,0 -1.511719,0.46875 -1.511719,1.234375 0,0.246094 0.07422,0.449219 0.203125,0.597657 0.128906,0.128906 0.246094,0.195312 0.597656,0.300781 l 1.140625,0.367187 c 0.246094,0.07422 0.320313,0.148438 0.320313,0.300782 0,0.222656 -0.257813,0.351562 -0.707032,0.351562 -0.246094,0 -0.441406,-0.03906 -0.570312,-0.128906 -0.09766,-0.07422 -0.136719,-0.148438 -0.183594,-0.34375 h -0.929688 c 0.01953,0.808594 0.621094,1.234375 1.738282,1.234375 0.515625,0 0.898437,-0.117188 1.179687,-0.332031 0.269531,-0.214844 0.441407,-0.558594 0.441407,-0.921876 0,-0.484374 -0.25,-0.78125 -0.730469,-0.933593 l -1.214844,-0.34375 c -0.269531,-0.08594 -0.332031,-0.140625 -0.332031,-0.289063 0,-0.203125 0.214844,-0.34375 0.558594,-0.34375 0.449218,0 0.675781,0.160156 0.6875,0.492188 z m 0,0"
         id="path11932" />
      <path
         style="fill:#000000;fill-opacity:1;fill-rule:nonzero;stroke:none"
         d="m 80.355469,25.320312 h -0.535157 v -0.988281 h -0.957031 v 0.988281 h -0.472656 v 0.640626 h 0.472656 v 2.277343 c 0,0.578125 0.3125,0.867188 0.933594,0.867188 0.214844,0 0.386719,-0.01953 0.558594,-0.07422 v -0.675781 c -0.09766,0.01172 -0.148438,0.01953 -0.214844,0.01953 -0.257813,0 -0.320313,-0.07031 -0.320313,-0.40625 v -2.007812 h 0.535157 z m 0,0"
         id="path11934" />
      <path
         style="fill:#000000;fill-opacity:1;fill-rule:nonzero;stroke:none"
         d="M 84.160156,28.828125 C 83.984375,28.667969 83.945312,28.570312 83.945312,28.375 v -2.046875 c 0,-0.761719 -0.515624,-1.136719 -1.515624,-1.136719 -0.996094,0 -1.523438,0.417969 -1.578126,1.277344 h 0.921876 c 0.04687,-0.386719 0.207031,-0.507812 0.679687,-0.507812 0.363281,0 0.546875,0.121093 0.546875,0.367187 0,0.128906 -0.05469,0.234375 -0.160156,0.289063 -0.128906,0.06641 -0.128906,0.06641 -0.601563,0.140624 l -0.386719,0.07422 c -0.730468,0.117188 -1.085937,0.492188 -1.085937,1.160157 0,0.320312 0.08594,0.578124 0.257813,0.761718 0.214843,0.222656 0.539062,0.351563 0.859374,0.351563 0.417969,0 0.792969,-0.179688 1.125,-0.523438 0,0.179688 0.02344,0.257813 0.109376,0.363281 h 1.042968 z M 83,27.464844 c 0,0.546875 -0.269531,0.871094 -0.753906,0.871094 -0.320313,0 -0.523438,-0.171876 -0.523438,-0.453126 0,-0.289062 0.148438,-0.417968 0.546875,-0.503906 l 0.332031,-0.0625 C 82.847656,27.273438 82.890625,27.25 83,27.199219 Z m 0,0"
         id="path11936" />
      <path
         style="fill:#000000;fill-opacity:1;fill-rule:nonzero;stroke:none"
         d="m 87.953125,26.628906 c -0.06641,-0.902344 -0.667969,-1.4375 -1.601563,-1.4375 -1.09375,0 -1.738281,0.71875 -1.738281,1.984375 0,1.210938 0.636719,1.929688 1.730469,1.929688 0.902344,0 1.523438,-0.554688 1.609375,-1.4375 h -0.914063 c -0.128906,0.472656 -0.320312,0.667969 -0.6875,0.667969 -0.492187,0 -0.78125,-0.441407 -0.78125,-1.160157 0,-0.355469 0.0625,-0.675781 0.183594,-0.902343 0.105469,-0.203126 0.320313,-0.3125 0.597656,-0.3125 0.386719,0 0.570313,0.183593 0.6875,0.667968 z m 0,0"
         id="path11938" />
      <path
         style="fill:#000000;fill-opacity:1;fill-rule:nonzero;stroke:none"
         d="m 89.410156,26.683594 v -2.726563 h -0.957031 v 4.988281 h 0.957031 v -1.210937 l 0.386719,-0.417969 0.878906,1.628906 h 1.125 l -1.351562,-2.296874 1.257812,-1.40625 h -1.085937 z m 0,0"
         id="path11940" />
      <path
         style="fill:#ffffff;fill-opacity:1;fill-rule:nonzero;stroke:#000000;stroke-width:2.19717;stroke-linecap:butt;stroke-linejoin:miter;stroke-miterlimit:4;stroke-opacity:1"
         d="m 200.7281,114.10837 h 104.86802 v 36.76119 H 200.7281 Z m 0,0"
         transform="matrix(0.32675,0,0,0.32675,0.791,0.922122)"
         id="path11942" />
      <path
         style="fill:#000000;fill-opacity:1;fill-rule:nonzero;stroke:none"
         d="m 77.914062,41.765625 c 0.05078,-0.136719 0.05078,-0.148437 0.300782,-0.175781 0.160156,-0.02344 0.324218,-0.02344 0.457031,-0.02344 v -0.375 c -0.222656,0.01563 -0.496094,0.02734 -0.855469,0.02734 -0.300781,0 -0.785156,0 -1.070312,-0.02734 v 0.375 c 0.199218,0 0.570312,0 0.808594,0.08594 L 76.1875,45.207031 74.78125,41.566406 h 0.757812 v -0.375 c -0.296874,0.02734 -1.042968,0.02734 -1.378906,0.02734 -0.308594,0 -0.945312,0 -1.21875,-0.02734 v 0.375 H 73.625 l 0.324219,0.84375 -1.082031,2.796875 -1.40625,-3.640625 h 0.773437 v -0.375 c -0.3125,0.02734 -1.058594,0.02734 -1.394531,0.02734 -0.308594,0 -0.929688,0 -1.21875,-0.02734 v 0.375 h 0.6875 L 72.207031,46.5 c 0.05078,0.125 0.08984,0.199219 0.289063,0.199219 0.199218,0 0.222656,-0.07422 0.273437,-0.199219 L 74.148438,42.921875 75.527344,46.5 c 0.05078,0.125 0.07422,0.199219 0.273437,0.199219 C 76,46.699219 76.039062,46.625 76.085938,46.5 Z m 0,0"
         id="path11944" />
      <path
         style="fill:#000000;fill-opacity:1;fill-rule:nonzero;stroke:none"
         d="m 84.269531,44.648438 c 0,-0.84375 -0.710937,-1.527344 -1.53125,-1.527344 -0.855469,0 -1.554687,0.707031 -1.554687,1.527344 0,0.84375 0.699218,1.542968 1.554687,1.542968 0.820313,0 1.53125,-0.683594 1.53125,-1.542968 z m 0,0"
         id="path11946" />
      <path
         style="fill:#000000;fill-opacity:1;fill-rule:nonzero;stroke:none"
         d="m 89.71875,44.8125 h 2.214844 c 0.109375,0 0.261718,0 0.261718,-0.164062 C 92.195312,44.5 92.042969,44.5 91.933594,44.5 H 89.71875 v -2.226562 c 0,-0.109376 0,-0.261719 -0.160156,-0.261719 -0.164063,0 -0.164063,0.152343 -0.164063,0.261719 V 44.5 h -2.210937 c -0.109375,0 -0.261719,0 -0.261719,0.148438 0,0.164062 0.152344,0.164062 0.261719,0.164062 h 2.210937 v 2.222656 c 0,0.113282 0,0.261719 0.164063,0.261719 0.160156,0 0.160156,-0.148437 0.160156,-0.261719 z m 0,0"
         id="path11948" />
      <path
         style="fill:#000000;fill-opacity:1;fill-rule:nonzero;stroke:none"
         d="m 94.34375,43.457031 v -2.328125 l -1.402344,0.0625 v 0.375 c 0.484375,0 0.542969,0 0.542969,0.3125 v 4.757813 h 0.375 l 0.386719,-0.445313 c 0.05859,0.0625 0.445312,0.496094 1.15625,0.496094 1.179687,0 2,-0.722656 2,-1.816406 0,-1.054688 -0.746094,-1.800782 -1.902344,-1.800782 -0.570312,0 -0.96875,0.222657 -1.15625,0.386719 z m 0.03906,2.398438 v -1.988281 c 0.222657,-0.289063 0.59375,-0.511719 1.03125,-0.511719 0.96875,0 0.96875,0.957031 0.96875,1.515625 0,0.375 0,0.808594 -0.199218,1.121094 -0.234375,0.324218 -0.59375,0.410156 -0.855469,0.410156 -0.550781,0 -0.859375,-0.4375 -0.945313,-0.546875 z m 0,0"
         id="path11950" />
      <path
         style="fill:none;stroke:#000000;stroke-width:4.30661;stroke-linecap:butt;stroke-linejoin:miter;stroke-miterlimit:4;stroke-opacity:1"
         d="M 225.24751,292.86937 H 67.359698"
         transform="matrix(0.32675,0,0,0.32675,0.791,0.922122)"
         id="path11952" />
      <path
         style="fill:#000000;fill-opacity:1;fill-rule:evenodd;stroke:#000000;stroke-width:1.14843;stroke-linecap:butt;stroke-linejoin:miter;stroke-miterlimit:4;stroke-opacity:1"
         d="m -62.386477,-292.86937 -7.459831,4.30375 v -8.6075 z m 0,0"
         transform="matrix(-0.32675,0,0,-0.32675,0.791,0.922122)"
         id="path11954" />
      <path
         style="fill:none;stroke:#000000;stroke-width:4.31336;stroke-linecap:butt;stroke-linejoin:miter;stroke-miterlimit:4;stroke-opacity:1"
         d="m 252.60023,302.33762 v 27.3288"
         transform="matrix(0.32675,0,0,0.32675,0.791,0.922122)"
         id="path11956" />
      <path
         style="fill:#000000;fill-opacity:1;fill-rule:evenodd;stroke:#000000;stroke-width:1.15023;stroke-linecap:butt;stroke-linejoin:miter;stroke-miterlimit:4;stroke-opacity:1"
         d="m 334.63964,-252.60023 -7.45983,4.3157 v -8.6314 z m 0,0"
         transform="matrix(0,0.32675,-0.32675,0,0.791,0.922122)"
         id="path11958" />
      <path
         style="fill:#ffffff;fill-opacity:1;fill-rule:nonzero;stroke:#000000;stroke-width:1.47182;stroke-linecap:butt;stroke-linejoin:miter;stroke-miterlimit:4;stroke-opacity:1"
         d="m 221.17091,279.5397 h 64.05413 v 27.00602 h -64.05413 z m 0,0"
         transform="matrix(0.32675,0,0,0.32675,0.791,0.922122)"
         id="path11960" />
      <path
         style="fill:#000000;fill-opacity:1;fill-rule:nonzero;stroke:none"
         d="m 79.949219,96.246094 c -0.0078,-0.769532 -0.609375,-1.242188 -1.609375,-1.242188 -0.933594,0 -1.511719,0.472656 -1.511719,1.234375 0,0.246094 0.07422,0.449219 0.203125,0.601563 0.128906,0.128906 0.246094,0.191406 0.601562,0.296875 l 1.136719,0.367187 c 0.246094,0.07422 0.324219,0.148438 0.324219,0.300782 0,0.222656 -0.257812,0.355468 -0.710938,0.355468 -0.246093,0 -0.4375,-0.04687 -0.566406,-0.132812 -0.09766,-0.07422 -0.140625,-0.148438 -0.183594,-0.339844 h -0.933593 c 0.01953,0.804688 0.621093,1.234375 1.738281,1.234375 0.515625,0 0.902344,-0.121094 1.179688,-0.335937 0.269531,-0.214844 0.441406,-0.558594 0.441406,-0.921876 0,-0.480468 -0.246094,-0.785156 -0.730469,-0.933593 l -1.214844,-0.34375 c -0.265625,-0.08594 -0.332031,-0.140625 -0.332031,-0.289063 0,-0.203125 0.214844,-0.34375 0.558594,-0.34375 0.453125,0 0.675781,0.160156 0.6875,0.492188 z m 0,0"
         id="path11962" />
      <path
         style="fill:#000000;fill-opacity:1;fill-rule:nonzero;stroke:none"
         d="M 81.652344,95.058594 H 80.695312 V 100.25 h 0.957032 v -1.929688 c 0.234375,0.40625 0.566406,0.601563 1.027344,0.601563 0.894531,0 1.546874,-0.839844 1.546874,-1.953125 0,-0.527344 -0.148437,-1.042969 -0.394531,-1.386719 -0.25,-0.355469 -0.710937,-0.578125 -1.152343,-0.578125 -0.460938,0 -0.792969,0.191406 -1.027344,0.609375 z m 0.816406,0.738281 c 0.480469,0 0.804688,0.472656 0.804688,1.179687 0,0.675782 -0.335938,1.148438 -0.804688,1.148438 -0.484375,0 -0.816406,-0.472656 -0.816406,-1.15625 0,-0.699219 0.332031,-1.171875 0.816406,-1.171875 z m 0,0"
         id="path11964" />
      <path
         style="fill:#000000;fill-opacity:1;fill-rule:nonzero;stroke:none"
         d="m 84.941406,93.769531 h 0.957032 v 4.988281 h -0.957032 z m 0,0"
         id="path11966" />
      <path
         style="fill:#000000;fill-opacity:1;fill-rule:nonzero;stroke:none"
         d="M 87.800781,95.058594 H 86.84375 v 3.699218 h 0.957031 z m 0,-1.289063 H 86.84375 V 94.625 h 0.957031 z m 0,0"
         id="path11968" />
      <path
         style="fill:#000000;fill-opacity:1;fill-rule:nonzero;stroke:none"
         d="m 90.347656,95.132812 h -0.539062 v -0.988281 h -0.953125 v 0.988281 h -0.472657 v 0.640626 h 0.472657 v 2.277343 c 0,0.578125 0.3125,0.871094 0.933593,0.871094 0.214844,0 0.386719,-0.02344 0.558594,-0.07813 v -0.675781 c -0.09766,0.01172 -0.152344,0.02344 -0.214844,0.02344 -0.257812,0 -0.324218,-0.07813 -0.324218,-0.40625 v -2.011718 h 0.539062 z m 0,0"
         id="path11970" />
      <path
         style="fill:none;stroke:#000000;stroke-width:4.31336;stroke-linecap:butt;stroke-linejoin:miter;stroke-miterlimit:4;stroke-opacity:1"
         d="m 253.16211,199.20305 v 15.82823"
         transform="matrix(0.32675,0,0,0.32675,0.791,0.922122)"
         id="path11972" />
      <path
         style="fill:#000000;fill-opacity:1;fill-rule:evenodd;stroke:#000000;stroke-width:1.15023;stroke-linecap:butt;stroke-linejoin:miter;stroke-miterlimit:4;stroke-opacity:1"
         d="m 220.01646,-253.16211 -7.45983,4.31571 v -8.63141 z m 0,0"
         transform="matrix(0,0.32675,-0.32675,0,0.791,0.922122)"
         id="path11974" />
      <path
         style="fill:#ffffff;fill-opacity:1;fill-rule:nonzero;stroke:#000000;stroke-width:1.69638;stroke-linecap:butt;stroke-linejoin:miter;stroke-miterlimit:4;stroke-opacity:1"
         d="m 215.8749,170.87004 h 74.57441 v 30.81962 H 215.8749 Z m 0,0"
         transform="matrix(0.32675,0,0,0.32675,0.791,0.922122)"
         id="path11976" />
      <path
         style="fill:#000000;fill-opacity:1;fill-rule:nonzero;stroke:none"
         d="m 79.757812,60.546875 c 0,-1.132813 -0.785156,-1.792969 -2.117187,-1.792969 -1.265625,0 -2.050781,0.660156 -2.050781,1.703125 0,0.710938 0.375,1.144531 1.132812,1.34375 l 1.429688,0.386719 c 0.734375,0.1875 1.070312,0.484375 1.070312,0.933594 0,0.308594 -0.175781,0.632812 -0.410156,0.804687 -0.238281,0.152344 -0.597656,0.238281 -1.070312,0.238281 -0.621094,0 -1.058594,-0.148437 -1.332032,-0.484374 -0.210937,-0.25 -0.308594,-0.523438 -0.296875,-0.882813 h -0.695312 c 0,0.535156 0.109375,0.882813 0.335937,1.191406 0.394532,0.546875 1.066406,0.835938 1.9375,0.835938 0.699219,0 1.257813,-0.164063 1.628906,-0.449219 0.386719,-0.3125 0.632813,-0.820312 0.632813,-1.328125 0,-0.710937 -0.445313,-1.234375 -1.226563,-1.445313 L 77.28125,61.203125 c -0.707031,-0.183594 -0.957031,-0.410156 -0.957031,-0.855469 0,-0.585937 0.511719,-0.96875 1.292969,-0.96875 0.921874,0 1.429687,0.421875 1.441406,1.167969 z m 0,0"
         id="path11978" />
      <path
         style="fill:#000000;fill-opacity:1;fill-rule:nonzero;stroke:none"
         d="m 81.511719,60.484375 h -0.65625 v 4.152344 h 0.65625 z m 0,-1.628906 H 80.839844 V 59.6875 h 0.671875 z m 0,0"
         id="path11980" />
      <path
         style="fill:#000000;fill-opacity:1;fill-rule:nonzero;stroke:none"
         d="m 83.449219,58.855469 h -0.734375 v 5.78125 h 3.589844 v -0.648438 h -2.855469 z m 0,0"
         id="path11982" />
      <path
         style="fill:#000000;fill-opacity:1;fill-rule:nonzero;stroke:none"
         d="m 90.863281,58.855469 v 4.066406 c 0,0.769531 -0.558593,1.242187 -1.492187,1.242187 -0.421875,0 -0.769532,-0.101562 -1.058594,-0.300781 -0.285156,-0.222656 -0.410156,-0.507812 -0.410156,-0.941406 V 58.855469 H 87.15625 v 4.066406 c 0,1.167969 0.847656,1.902344 2.214844,1.902344 1.355468,0 2.238281,-0.746094 2.238281,-1.902344 v -4.066406 z m 0,0"
         id="path11984" />
      <path
         style="fill:#000000;fill-opacity:1;fill-rule:nonzero;stroke:#000000;stroke-width:2.69203;stroke-linecap:butt;stroke-linejoin:miter;stroke-miterlimit:4;stroke-opacity:1"
         d="m 42.421863,75.350717 h 4.267885 v 4.267885 h -4.267885 z m 0,0"
         transform="matrix(0.32675,0,0,0.32675,0.791,0.922122)"
         id="path11986" />
      <path
         style="fill:none;stroke:#000000;stroke-width:4.31336;stroke-linecap:butt;stroke-linejoin:miter;stroke-miterlimit:4;stroke-opacity:1"
         d="M 44.525918,309.42685 V 329.8577"
         transform="matrix(0.32675,0,0,0.32675,0.791,0.922122)"
         id="path11988" />
      <path
         style="fill:#000000;fill-opacity:1;fill-rule:evenodd;stroke:#000000;stroke-width:1.15023;stroke-linecap:butt;stroke-linejoin:miter;stroke-miterlimit:4;stroke-opacity:1"
         d="m 334.83092,-44.525918 -7.45983,4.303749 v -8.619453 z m 0,0"
         transform="matrix(0,0.32675,-0.32675,0,0.791,0.922122)"
         id="path11990" />
      <path
         style="fill:#ffffff;fill-opacity:1;fill-rule:nonzero;stroke:none"
         d="m 20.578125,96.628906 c 0,2.890625 -2.34375,5.230474 -5.234375,5.230474 -2.886719,0 -5.230469,-2.339849 -5.230469,-5.230474 0,-2.890625 2.34375,-5.234375 5.230469,-5.234375 2.890625,0 5.234375,2.34375 5.234375,5.234375 z m 0,0"
         id="path11992" />
      <g
         clip-path="url(#clip39)"
         clip-rule="nonzero"
         id="g11996">
        <path
           style="fill:none;stroke:#000000;stroke-width:1.67706;stroke-linecap:round;stroke-linejoin:miter;stroke-miterlimit:23.3;stroke-opacity:1"
           d="m 60.557383,292.90523 c 0,8.8466 -7.172915,16.00756 -16.01951,16.00756 -8.83464,0 -16.007555,-7.16096 -16.007555,-16.00756 0,-8.84659 7.172915,-16.01951 16.007555,-16.01951 8.846595,0 16.01951,7.17292 16.01951,16.01951 z m 0,0"
           transform="matrix(0.32675,0,0,0.32675,0.791,0.922122)"
           id="path11994" />
      </g>
      <path
         style="fill:#000000;fill-opacity:1;fill-rule:nonzero;stroke:none"
         d="m 17.265625,96.71875 c 0,-1.050781 -0.882813,-1.902344 -1.90625,-1.902344 -1.066406,0 -1.933594,0.882813 -1.933594,1.902344 0,1.050781 0.867188,1.917969 1.933594,1.917969 1.023437,0 1.90625,-0.851563 1.90625,-1.917969 z M 15.359375,98.25 c -0.863281,0 -1.53125,-0.695312 -1.53125,-1.53125 0,-0.820312 0.679687,-1.515625 1.53125,-1.515625 0.804687,0 1.515625,0.679687 1.515625,1.515625 0,0.851562 -0.710938,1.53125 -1.515625,1.53125 z m 0,0"
         id="path11998" />
      <path
         style="fill:#ffffff;fill-opacity:1;fill-rule:nonzero;stroke:#000000;stroke-width:1.58066;stroke-linecap:butt;stroke-linejoin:miter;stroke-miterlimit:4;stroke-opacity:1"
         d="m 83.21184,62.092779 h 61.10128 V 94.753452 H 83.21184 Z m 0,0"
         transform="matrix(0.32675,0,0,0.32675,0.791,0.922122)"
         id="path12000" />
      <path
         style="fill:none;stroke:#000000;stroke-width:4.31336;stroke-linecap:butt;stroke-linejoin:miter;stroke-miterlimit:4;stroke-opacity:1"
         d="M 45.984411,77.502592 77.74847,77.490637"
         transform="matrix(0.32675,0,0,0.32675,0.791,0.922122)"
         id="path12002" />
      <path
         style="fill:#000000;fill-opacity:1;fill-rule:evenodd;stroke:#000000;stroke-width:1.15023;stroke-linecap:butt;stroke-linejoin:miter;stroke-miterlimit:4;stroke-opacity:1"
         d="m 82.700463,77.526034 -7.461677,4.31251 0.0037,-8.631406 z m 0,0"
         transform="matrix(0.32675,-1.39854e-4,1.39854e-4,0.32675,0.791,0.922122)"
         id="path12004" />
      <path
         style="fill:#000000;fill-opacity:1;fill-rule:nonzero;stroke:none"
         d="m 17.183594,41.960938 c 0.05078,-0.136719 0.05078,-0.148438 0.300781,-0.171876 0.160156,-0.02734 0.320313,-0.02734 0.457031,-0.02734 v -0.371094 c -0.222656,0.01172 -0.496094,0.02734 -0.855468,0.02734 -0.300782,0 -0.785157,0 -1.070313,-0.02734 v 0.371094 c 0.199219,0 0.570313,0 0.808594,0.08984 l -1.367188,3.554688 -1.40625,-3.644531 h 0.757813 v -0.371094 c -0.296875,0.02734 -1.042969,0.02734 -1.378906,0.02734 -0.308594,0 -0.945313,0 -1.21875,-0.02734 v 0.371094 h 0.683593 l 0.324219,0.847656 -1.082031,2.796875 -1.40625,-3.644531 h 0.773437 v -0.371094 c -0.3125,0.02734 -1.058594,0.02734 -1.394531,0.02734 -0.308594,0 -0.929687,0 -1.21875,-0.02734 v 0.371094 h 0.683594 l 1.902343,4.9375 c 0.05078,0.125 0.08984,0.199219 0.289063,0.199219 0.199219,0 0.222656,-0.07422 0.269531,-0.199219 l 1.382813,-3.582031 1.378906,3.582031 c 0.05078,0.125 0.07422,0.199219 0.273437,0.199219 0.199219,0 0.238282,-0.07422 0.285157,-0.199219 z m 0,0"
         id="path12006" />
      <path
         style="fill:#000000;fill-opacity:1;fill-rule:nonzero;stroke:none"
         d="m 21.777344,44.847656 c 0,-0.84375 -0.710938,-1.53125 -1.53125,-1.53125 -0.855469,0 -1.554688,0.710938 -1.554688,1.53125 0,0.847656 0.699219,1.542969 1.554688,1.542969 0.820312,0 1.53125,-0.6875 1.53125,-1.542969 z m 0,0"
         id="path12008" />
      <path
         style="fill:#000000;fill-opacity:1;fill-rule:nonzero;stroke:none"
         d="m 22.128906,54.34375 v 0.648438 c -0.320312,-0.488282 -0.683594,-0.707032 -1.160156,-0.707032 -1.003906,0 -1.75,0.964844 -1.75,2.269532 0,1.304687 0.6875,2.183593 1.722656,2.183593 0.488282,0 0.78125,-0.144531 1.1875,-0.609375 v 0.5625 c 0,0.511719 -0.378906,0.867188 -0.929687,0.867188 -0.402344,0 -0.683594,-0.167969 -0.769531,-0.5 h -1.125 c 0,0.332031 0.136718,0.5625 0.417968,0.792968 0.328125,0.269532 0.792969,0.402344 1.441406,0.402344 1.269532,0 2,-0.558594 2,-1.5625 V 54.34375 Z m -0.929687,0.84375 c 0.539062,0 0.953125,0.574219 0.953125,1.355469 0,0.757812 -0.402344,1.28125 -0.976563,1.28125 -0.515625,0 -0.867187,-0.523438 -0.867187,-1.28125 0,-0.792969 0.351562,-1.355469 0.890625,-1.355469 z m 0,0"
         id="path12010" />
      <path
         style="fill:#000000;fill-opacity:1;fill-rule:nonzero;stroke:none"
         d="M 27.789062,58.421875 C 27.59375,58.238281 27.546875,58.128906 27.546875,57.910156 v -2.332031 c 0,-0.867187 -0.585937,-1.292969 -1.722656,-1.292969 -1.136719,0 -1.734375,0.472656 -1.796875,1.449219 h 1.050781 c 0.05078,-0.4375 0.230469,-0.570313 0.769531,-0.570313 0.414063,0 0.621094,0.132813 0.621094,0.414063 0,0.144531 -0.05859,0.269531 -0.179688,0.328125 -0.148437,0.07422 -0.148437,0.07422 -0.683593,0.160156 l -0.441407,0.08594 c -0.832031,0.132812 -1.234374,0.5625 -1.234374,1.316406 0,0.367188 0.09766,0.660156 0.292968,0.871094 0.246094,0.253906 0.609375,0.398437 0.976563,0.398437 0.476562,0 0.90625,-0.203125 1.285156,-0.597656 0,0.210937 0.02344,0.292969 0.121094,0.417969 h 1.183593 z M 26.46875,56.871094 c 0,0.625 -0.304688,0.988281 -0.855469,0.988281 -0.363281,0 -0.597656,-0.195313 -0.597656,-0.511719 0,-0.328125 0.171875,-0.476562 0.625,-0.574218 l 0.378906,-0.07422 c 0.28125,-0.04687 0.328125,-0.07031 0.449219,-0.132813 z m 0,0"
         id="path12012" />
      <path
         style="fill:#000000;fill-opacity:1;fill-rule:nonzero;stroke:none"
         d="m 30.382812,54.429688 h -0.609374 v -1.125 H 28.6875 v 1.125 h -0.539062 v 0.734374 H 28.6875 V 57.75 c 0,0.660156 0.351562,0.988281 1.0625,0.988281 0.246094,0 0.441406,-0.02344 0.632812,-0.08203 V 57.88672 c -0.109374,0.01172 -0.167968,0.02344 -0.242187,0.02344 -0.292969,0 -0.367187,-0.08594 -0.367187,-0.464844 v -2.28125 h 0.609374 z m 0,0"
         id="path12014" />
      <path
         style="fill:#000000;fill-opacity:1;fill-rule:nonzero;stroke:none"
         d="m 34.710938,56.800781 c 0.01562,-0.101562 0.01562,-0.136719 0.01562,-0.195312 0,-0.417969 -0.0625,-0.808594 -0.160156,-1.101563 -0.28125,-0.769531 -0.964844,-1.21875 -1.808594,-1.21875 -1.207031,0 -1.953124,0.863282 -1.953124,2.28125 0,1.34375 0.734374,2.171875 1.929687,2.171875 0.941406,0 1.699219,-0.535156 1.941406,-1.363281 h -1.074219 c -0.132812,0.328125 -0.4375,0.523438 -0.832031,0.523438 -0.316406,0 -0.5625,-0.125 -0.71875,-0.367188 -0.09766,-0.144531 -0.132812,-0.34375 -0.160156,-0.730469 z m -2.792969,-0.734375 c 0.05859,-0.636718 0.339843,-0.953125 0.816406,-0.953125 0.28125,0 0.523437,0.136719 0.683594,0.355469 0.09766,0.144531 0.144531,0.316406 0.171875,0.597656 z m 0,0"
         id="path12016" />
      <path
         style="fill:#000000;fill-opacity:1;fill-rule:nonzero;stroke:none"
         d="m 38.113281,58.558594 h 1.101563 v -5.679688 h -1.101563 v 2.015625 c -0.269531,-0.417969 -0.632812,-0.609375 -1.160156,-0.609375 -1,0 -1.757813,0.964844 -1.757813,2.234375 0,0.558594 0.171876,1.144531 0.453126,1.550781 0.28125,0.402344 0.792968,0.667969 1.304687,0.667969 0.527344,0 0.890625,-0.191406 1.160156,-0.609375 z M 37.199219,55.1875 c 0.550781,0 0.914062,0.535156 0.914062,1.34375 0,0.769531 -0.363281,1.292969 -0.914062,1.292969 -0.550781,0 -0.917969,-0.535157 -0.917969,-1.304688 0,-0.785156 0.367188,-1.332031 0.917969,-1.332031 z m 0,0"
         id="path12018" />
      <path
         style="fill:#000000;fill-opacity:1;fill-rule:nonzero;stroke:none"
         d="m 23.03125,66.144531 c 0.01172,-0.09766 0.01172,-0.136719 0.01172,-0.195312 0,-0.417969 -0.05859,-0.808594 -0.15625,-1.101563 -0.28125,-0.769531 -0.964844,-1.21875 -1.808594,-1.21875 -1.210937,0 -1.953125,0.867188 -1.953125,2.28125 0,1.34375 0.730469,2.175782 1.929688,2.175782 0.9375,0 1.695312,-0.539063 1.941406,-1.367188 h -1.074219 c -0.136719,0.328125 -0.441406,0.523438 -0.832031,0.523438 -0.316406,0 -0.5625,-0.121094 -0.71875,-0.363282 -0.101563,-0.148437 -0.136719,-0.34375 -0.160156,-0.734375 z m -2.796875,-0.734375 c 0.0625,-0.632812 0.339844,-0.953125 0.820313,-0.953125 0.28125,0 0.523437,0.136719 0.683593,0.355469 0.09766,0.144531 0.144531,0.316406 0.167969,0.597656 z m 0,0"
         id="path12020" />
      <path
         style="fill:#000000;fill-opacity:1;fill-rule:nonzero;stroke:none"
         d="m 26.433594,63.6875 v 0.636719 c -0.257813,-0.464844 -0.648438,-0.695313 -1.171875,-0.695313 -1.015625,0 -1.761719,0.953125 -1.761719,2.234375 0,0.585938 0.171875,1.183594 0.453125,1.5625 0.28125,0.402344 0.804687,0.660157 1.296875,0.660157 0.535156,0 0.925781,-0.21875 1.183594,-0.683594 v 2.199218 h 1.085937 V 63.6875 Z m -0.929688,0.84375 c 0.5625,0 0.929688,0.539062 0.929688,1.355469 0,0.757812 -0.378906,1.296875 -0.929688,1.296875 -0.539062,0 -0.914062,-0.539063 -0.914062,-1.320313 0,-0.792969 0.375,-1.332031 0.914062,-1.332031 z m 0,0"
         id="path12022" />
      <path
         style="fill:#000000;fill-opacity:1;fill-rule:nonzero;stroke:none"
         d="M 32.253906,67.902344 V 63.6875 h -1.089844 v 2.640625 c 0,0.5 -0.351562,0.828125 -0.878906,0.828125 -0.476562,0 -0.707031,-0.253906 -0.707031,-0.757812 V 63.6875 h -1.085937 v 2.933594 c 0,0.925781 0.511718,1.464844 1.402343,1.464844 0.574219,0 0.953125,-0.21875 1.269531,-0.683594 v 0.5 z m 0,0"
         id="path12024" />
      <path
         style="fill:#000000;fill-opacity:1;fill-rule:nonzero;stroke:none"
         d="m 34.410156,63.6875 h -1.085937 v 4.214844 h 1.085937 z m 0,-1.464844 h -1.085937 v 0.976563 h 1.085937 z m 0,0"
         id="path12026" />
      <path
         style="fill:#000000;fill-opacity:1;fill-rule:nonzero;stroke:none"
         d="M 37.6875,67.902344 39.140625,63.6875 H 37.992188 L 37.136719,66.765625 36.222656,63.6875 h -1.148437 l 1.476562,4.214844 z m 0,0"
         id="path12028" />
      <path
         style="fill:#000000;fill-opacity:1;fill-rule:nonzero;stroke:none"
         d="m 43.214844,67.769531 c -0.195313,-0.183593 -0.242188,-0.296875 -0.242188,-0.515625 v -2.332031 c 0,-0.867187 -0.585937,-1.292969 -1.722656,-1.292969 -1.136719,0 -1.734375,0.472656 -1.796875,1.453125 h 1.050781 c 0.05078,-0.441406 0.234375,-0.574219 0.769532,-0.574219 0.417968,0 0.625,0.132813 0.625,0.414063 0,0.148437 -0.0625,0.269531 -0.183594,0.332031 -0.144532,0.07031 -0.144532,0.07031 -0.683594,0.15625 l -0.441406,0.08594 c -0.828125,0.136718 -1.230469,0.5625 -1.230469,1.320312 0,0.367188 0.09375,0.65625 0.289063,0.867188 0.246093,0.253906 0.613281,0.402344 0.980468,0.402344 0.476563,0 0.902344,-0.207032 1.28125,-0.597657 0,0.207031 0.02344,0.292969 0.121094,0.414063 h 1.183594 z M 41.898438,66.21875 c 0,0.621094 -0.304688,0.988281 -0.855469,0.988281 -0.367188,0 -0.597657,-0.195312 -0.597657,-0.515625 0,-0.328125 0.167969,-0.472656 0.621094,-0.574218 l 0.378906,-0.07031 c 0.28125,-0.05078 0.328126,-0.07422 0.453126,-0.136719 z m 0,0"
         id="path12030" />
      <path
         style="fill:#000000;fill-opacity:1;fill-rule:nonzero;stroke:none"
         d="m 43.957031,63.6875 v 4.214844 h 1.097657 v -2.234375 c 0,-0.636719 0.316406,-0.964844 0.953124,-0.964844 0.121094,0 0.195313,0.01172 0.34375,0.03516 V 63.62891 c -0.0625,0 -0.101562,0 -0.136718,0 -0.5,0 -0.929688,0.328125 -1.160156,0.890625 V 63.6875 Z m 0,0"
         id="path12032" />
      <path
         style="fill:#000000;fill-opacity:1;fill-rule:nonzero;stroke:none"
         d="m 48.109375,63.6875 h -1.085937 v 4.214844 h 1.085937 z m 0,-1.464844 h -1.085937 v 0.976563 h 1.085937 z m 0,0"
         id="path12034" />
      <path
         style="fill:#000000;fill-opacity:1;fill-rule:nonzero;stroke:none"
         d="m 52.742188,67.769531 c -0.195313,-0.183593 -0.246094,-0.296875 -0.246094,-0.515625 v -2.332031 c 0,-0.867187 -0.585938,-1.292969 -1.722656,-1.292969 -1.132813,0 -1.734376,0.472656 -1.792969,1.453125 h 1.046875 c 0.05078,-0.441406 0.234375,-0.574219 0.773437,-0.574219 0.414063,0 0.621094,0.132813 0.621094,0.414063 0,0.148437 -0.0625,0.269531 -0.183594,0.332031 -0.148437,0.07031 -0.148437,0.07031 -0.683593,0.15625 l -0.441407,0.08594 c -0.828125,0.136718 -1.234375,0.5625 -1.234375,1.320312 0,0.367188 0.101563,0.65625 0.296875,0.867188 0.242188,0.253906 0.609375,0.402344 0.976563,0.402344 0.476562,0 0.902344,-0.207032 1.28125,-0.597657 0,0.207031 0.02344,0.292969 0.121094,0.414063 h 1.1875 z M 51.421875,66.21875 c 0,0.621094 -0.304687,0.988281 -0.855469,0.988281 -0.367187,0 -0.597656,-0.195312 -0.597656,-0.515625 0,-0.328125 0.171875,-0.472656 0.621094,-0.574218 l 0.378906,-0.07031 c 0.28125,-0.05078 0.332031,-0.07422 0.453125,-0.136719 z m 0,0"
         id="path12036" />
      <path
         style="fill:#000000;fill-opacity:1;fill-rule:nonzero;stroke:none"
         d="m 53.480469,63.6875 v 4.214844 h 1.097656 V 65.375 c 0,-0.5 0.34375,-0.820312 0.882813,-0.820312 0.460937,0 0.695312,0.257812 0.695312,0.757812 v 2.589844 h 1.085938 v -2.820313 c 0,-0.929687 -0.511719,-1.453125 -1.40625,-1.453125 -0.570313,0 -0.949219,0.207032 -1.257813,0.671875 V 63.6875 Z m 0,0"
         id="path12038" />
      <path
         style="fill:#000000;fill-opacity:1;fill-rule:nonzero;stroke:none"
         d="m 60.09375,63.773438 h -0.609375 v -1.121094 h -1.085937 v 1.121094 h -0.539063 v 0.734374 h 0.539063 v 2.589844 c 0,0.660156 0.351562,0.988282 1.0625,0.988282 0.242187,0 0.4375,-0.02344 0.632812,-0.08594 v -0.769531 c -0.109375,0.01172 -0.167969,0.02344 -0.242188,0.02344 -0.292968,0 -0.367187,-0.08594 -0.367187,-0.460937 v -2.285157 h 0.609375 z m 0,0"
         id="path12040" />
      <path
         style="fill:#000000;fill-opacity:1;fill-rule:nonzero;stroke:none"
         d="m 19.414062,71.566406 v 5.679688 h 1.089844 v -0.425782 c 0.269532,0.414063 0.636719,0.609376 1.160156,0.609376 1,0 1.769532,-0.964844 1.769532,-2.234376 0,-0.5625 -0.167969,-1.148437 -0.449219,-1.550781 -0.292969,-0.414062 -0.808594,-0.671875 -1.320313,-0.671875 -0.523437,0 -0.890624,0.195313 -1.160156,0.609375 V 71.566406 Z M 21.417969,73.875 c 0.539062,0 0.929687,0.550781 0.929687,1.332031 0,0.757813 -0.390625,1.308594 -0.929687,1.308594 -0.546875,0 -0.914063,-0.527344 -0.914063,-1.332031 0,-0.769532 0.378906,-1.308594 0.914063,-1.308594 z m 0,0"
         id="path12042" />
      <path
         style="fill:#000000;fill-opacity:1;fill-rule:nonzero;stroke:none"
         d="m 24.15625,71.566406 h 1.089844 v 5.679688 H 24.15625 Z m 0,0"
         id="path12044" />
      <path
         style="fill:#000000;fill-opacity:1;fill-rule:nonzero;stroke:none"
         d="m 28.140625,72.972656 c -1.28125,0 -2.074219,0.84375 -2.074219,2.222656 0,1.390626 0.792969,2.234376 2.089844,2.234376 1.269531,0 2.074219,-0.851563 2.074219,-2.199219 0,-1.429688 -0.769531,-2.257813 -2.089844,-2.257813 z m 0.01563,0.878906 c 0.597656,0 0.988281,0.539063 0.988281,1.355469 0,0.792969 -0.402343,1.34375 -0.988281,1.34375 -0.601562,0 -0.992188,-0.550781 -0.992188,-1.355469 0,-0.804687 0.390626,-1.34375 0.992188,-1.34375 z m 0,0"
         id="path12046" />
      <path
         style="fill:#000000;fill-opacity:1;fill-rule:nonzero;stroke:none"
         d="m 34.621094,74.609375 c -0.07031,-1.027344 -0.753906,-1.636719 -1.820313,-1.636719 -1.246093,0 -1.976562,0.820313 -1.976562,2.257813 0,1.382812 0.722656,2.199219 1.964843,2.199219 1.027344,0 1.734376,-0.632813 1.832032,-1.636719 h -1.035156 c -0.148438,0.539062 -0.367188,0.757812 -0.785157,0.757812 -0.558593,0 -0.890625,-0.5 -0.890625,-1.320312 0,-0.402344 0.07422,-0.769531 0.207032,-1.023438 0.125,-0.234375 0.367187,-0.355469 0.683593,-0.355469 0.441407,0 0.648438,0.207032 0.785157,0.757813 z m 0,0"
         id="path12048" />
      <path
         style="fill:#000000;fill-opacity:1;fill-rule:nonzero;stroke:none"
         d="m 36.28125,74.671875 v -3.105469 h -1.089844 v 5.679688 h 1.089844 v -1.378906 l 0.441406,-0.476563 1,1.855469 h 1.28125 l -1.539062,-2.613282 1.429687,-1.597656 h -1.234375 z m 0,0"
         id="path12050" />
      <path
         style="fill:#000000;fill-opacity:1;fill-rule:nonzero;stroke:none"
         d="m 39.8125,24.363281 c 0.05078,-0.136719 0.05078,-0.148437 0.300781,-0.175781 0.160157,-0.02344 0.320313,-0.02344 0.457031,-0.02344 v -0.371093 c -0.222656,0.01172 -0.496093,0.02344 -0.855468,0.02344 -0.300782,0 -0.785156,0 -1.070313,-0.02344 v 0.371093 c 0.199219,0 0.570313,0 0.808594,0.08594 l -1.367187,3.558594 -1.40625,-3.644532 H 37.4375 v -0.371093 c -0.296875,0.02344 -1.042969,0.02344 -1.378906,0.02344 -0.3125,0 -0.945313,0 -1.21875,-0.02344 v 0.371093 h 0.683594 l 0.324218,0.847657 -1.082031,2.796875 -1.40625,-3.644532 h 0.773437 v -0.371093 c -0.3125,0.02344 -1.058593,0.02344 -1.394531,0.02344 -0.308593,0 -0.929687,0 -1.21875,-0.02344 v 0.371093 h 0.683594 l 1.902344,4.9375 c 0.05078,0.121094 0.08984,0.199219 0.289062,0.199219 0.195313,0 0.222657,-0.07813 0.269531,-0.199219 l 1.382813,-3.582031 1.378906,3.582031 c 0.05078,0.121094 0.07422,0.199219 0.273438,0.199219 0.199219,0 0.238281,-0.07813 0.285156,-0.199219 z m 0,0"
         id="path12052" />
      <path
         style="fill:#000000;fill-opacity:1;fill-rule:nonzero;stroke:none"
         d="m 44.40625,27.25 c 0,-0.847656 -0.710938,-1.53125 -1.53125,-1.53125 -0.855469,0 -1.554688,0.710938 -1.554688,1.53125 0,0.84375 0.699219,1.539062 1.554688,1.539062 0.820312,0 1.53125,-0.683593 1.53125,-1.539062 z m 0,0"
         id="path12054" />
      <path
         style="fill:#000000;fill-opacity:1;fill-rule:nonzero;stroke:none"
         d="m 17.191406,3.0625 c -0.128906,0.125 -0.421875,0.375 -0.421875,0.53125 0,0.085938 0.08203,0.183594 0.167969,0.183594 0.08203,0 0.125,-0.070313 0.183594,-0.128906 0.09766,-0.125 0.308594,-0.378907 0.699218,-0.574219 0.05469,-0.039063 0.15625,-0.082031 0.15625,-0.179688 0,-0.101562 -0.07031,-0.140625 -0.128906,-0.183593 -0.195312,-0.140626 -0.292968,-0.296876 -0.363281,-0.507813 -0.02734,-0.082031 -0.05469,-0.207031 -0.183594,-0.207031 -0.125,0 -0.179687,0.125 -0.179687,0.195312 0,0.042969 0.07031,0.324219 0.210937,0.519532 h -3.015625 c -0.140625,0 -0.308594,0 -0.308594,0.183593 0,0.167969 0.167969,0.167969 0.308594,0.167969 z m 0,0"
         id="path12056" />
      <path
         style="fill:#000000;fill-opacity:1;fill-rule:nonzero;stroke:none"
         d="m 17.046875,5.148438 c 0.05859,-0.125 0.08594,-0.183594 0.660156,-0.183594 V 4.546875 c -0.226562,0.011719 -0.476562,0.027344 -0.699219,0.027344 -0.226562,0 -0.632812,-0.027344 -0.816406,-0.027344 v 0.417969 c 0.167969,0 0.421875,0.027344 0.421875,0.097656 0,0 0,0.03125 -0.04297,0.101562 L 15.53125,7.40625 14.398438,4.964844 H 14.875 V 4.546875 c -0.296875,0.011719 -1.09375,0.027344 -1.109375,0.027344 -0.25,0 -0.644531,-0.027344 -1.007813,-0.027344 v 0.417969 h 0.5625 l 1.566407,3.367187 C 15,8.554688 15.113281,8.554688 15.226562,8.554688 c 0.152344,0 0.25,-0.027344 0.335938,-0.222657 z m 0,0"
         id="path12058" />
      <g
         clip-path="url(#clip40)"
         clip-rule="nonzero"
         id="g12062">
        <path
           style="fill:#000000;fill-opacity:1;fill-rule:nonzero;stroke:none"
           d="m 19.855469,1.117188 c 0,-0.011719 0.02734,-0.097657 0.02734,-0.097657 0,-0.042969 -0.02734,-0.097656 -0.113281,-0.097656 -0.125,0 -0.644531,0.054687 -0.796875,0.070313 -0.04297,0 -0.128906,0.015624 -0.128906,0.140624 0,0.085938 0.08594,0.085938 0.15625,0.085938 0.308594,0 0.308594,0.054688 0.308594,0.097656 0,0.039063 -0.01563,0.082032 -0.03125,0.136719 l -0.78125,3.085937 c -0.01563,0.070313 -0.01563,0.140626 -0.01563,0.195313 0,0.410156 0.351562,0.589844 0.644531,0.589844 0.152344,0 0.351562,-0.042969 0.503906,-0.320313 0.140625,-0.238281 0.226563,-0.605468 0.226563,-0.632812 0,-0.085938 -0.08594,-0.085938 -0.09766,-0.085938 -0.101562,0 -0.113281,0.042969 -0.128906,0.15625 C 19.546875,4.75 19.417969,5.15625 19.152344,5.15625 c -0.167969,0 -0.207032,-0.152344 -0.207032,-0.308594 0,-0.070312 0.01172,-0.183594 0.03906,-0.253906 z m 0,0"
           id="path12060" />
      </g>
      <path
         style="fill:#000000;fill-opacity:1;fill-rule:nonzero;stroke:none"
         d="m 20.691406,6.929688 c 0,-0.097657 -0.08203,-0.238282 -0.25,-0.238282 -0.183594,0 -0.351562,0.179688 -0.351562,0.351563 0,0.097656 0.07031,0.234375 0.253906,0.234375 0.167969,0 0.347656,-0.167969 0.347656,-0.347656 z m -1.332031,4.21875 c -0.09766,0.433593 -0.433594,0.785156 -0.796875,0.785156 -0.08594,0 -0.15625,0 -0.226562,-0.02734 0.15625,-0.08594 0.210937,-0.222656 0.210937,-0.324219 0,-0.152343 -0.125,-0.222656 -0.25,-0.222656 -0.183594,0 -0.351563,0.167969 -0.351563,0.363281 0,0.238282 0.238282,0.394532 0.617188,0.394532 0.378906,0 1.105469,-0.226563 1.304688,-0.984376 l 0.558593,-2.242187 c 0.01563,-0.070313 0.02734,-0.125 0.02734,-0.222656 0,-0.335938 -0.292969,-0.589844 -0.65625,-0.589844 -0.703125,0 -1.09375,0.871094 -1.09375,0.964844 0,0.070312 0.08203,0.070312 0.09766,0.070312 0.07031,0 0.08594,-0.011719 0.125,-0.109375 0.15625,-0.363281 0.476563,-0.742187 0.84375,-0.742187 0.152344,0 0.210938,0.097656 0.210938,0.308593 0,0.070313 0,0.152344 -0.01563,0.179688 z m 0,0"
         id="path12064" />
      <path
         style="fill:#000000;fill-opacity:1;fill-rule:nonzero;stroke:none"
         d="m 82.890625,5.878906 c -0.339844,-0.058594 -0.914063,-0.15625 -0.914063,-0.578125 0,-0.558593 0.828126,-0.558593 0.996094,-0.558593 0.671875,0 1.011719,0.265624 1.050782,0.757812 0.01562,0.140625 0.03125,0.179688 0.210937,0.179688 0.210937,0 0.210937,-0.039063 0.210937,-0.25 V 4.714844 c 0,-0.167969 0,-0.253906 -0.15625,-0.253906 -0.03906,0 -0.05469,0 -0.402343,0.167968 -0.242188,-0.109375 -0.550781,-0.167968 -0.898438,-0.167968 -0.28125,0 -1.65625,0 -1.65625,1.179687 0,0.347656 0.183594,0.585937 0.363281,0.742187 0.351563,0.308594 0.703126,0.363282 1.390626,0.488282 0.320312,0.058594 0.980468,0.171875 0.980468,0.703125 0,0.671875 -0.8125,0.671875 -1.007812,0.671875 -0.953125,0 -1.179688,-0.65625 -1.292969,-1.035156 -0.03906,-0.128907 -0.09766,-0.128907 -0.207031,-0.128907 -0.226563,0 -0.226563,0.058594 -0.226563,0.253907 v 0.980468 c 0,0.167969 0,0.253906 0.167969,0.253906 0.05859,0 0.07031,0 0.265625,-0.140624 0.01563,0 0.210937,-0.125 0.226563,-0.15625 0.421874,0.296874 0.882812,0.296874 1.066406,0.296874 0.277344,0 1.652344,0 1.652344,-1.304687 0,-0.394531 -0.179688,-0.699219 -0.488282,-0.953125 C 83.871094,6.058594 83.574219,6.003906 82.890625,5.878906 Z m 0,0"
         id="path12066" />
      <g
         clip-path="url(#clip41)"
         clip-rule="nonzero"
         id="g12070">
        <path
           style="fill:#000000;fill-opacity:1;fill-rule:nonzero;stroke:none"
           d="m 86.816406,1.117188 c 0,-0.011719 0.03125,-0.097657 0.03125,-0.097657 0,-0.042969 -0.03125,-0.097656 -0.113281,-0.097656 -0.125,0 -0.644531,0.054687 -0.800781,0.070313 -0.03906,0 -0.125,0.015624 -0.125,0.140624 0,0.085938 0.08594,0.085938 0.15625,0.085938 0.308594,0 0.308594,0.054688 0.308594,0.097656 0,0.039063 -0.01563,0.082032 -0.03125,0.136719 l -0.785157,3.085937 c -0.01172,0.070313 -0.01172,0.140626 -0.01172,0.195313 0,0.410156 0.347657,0.589844 0.644532,0.589844 0.152344,0 0.351562,-0.042969 0.503906,-0.320313 0.140625,-0.238281 0.222656,-0.605468 0.222656,-0.632812 0,-0.085938 -0.08203,-0.085938 -0.09766,-0.085938 -0.09766,0 -0.109375,0.042969 -0.125,0.15625 C 86.507812,4.75 86.382812,5.15625 86.117188,5.15625 c -0.167969,0 -0.210938,-0.152344 -0.210938,-0.308594 0,-0.070312 0.01563,-0.183594 0.04297,-0.253906 z m 0,0"
           id="path12068" />
      </g>
      <path
         style="fill:#000000;fill-opacity:1;fill-rule:nonzero;stroke:none"
         d="m 87.800781,6.929688 c 0,-0.097657 -0.08594,-0.238282 -0.253906,-0.238282 -0.179687,0 -0.351563,0.179688 -0.351563,0.351563 0,0.097656 0.07031,0.234375 0.253907,0.234375 0.167969,0 0.351562,-0.167969 0.351562,-0.347656 z m -1.332031,4.21875 c -0.09766,0.433593 -0.433594,0.785156 -0.800781,0.785156 -0.08594,0 -0.152344,0 -0.222657,-0.02734 0.152344,-0.08594 0.207032,-0.222656 0.207032,-0.324219 0,-0.152343 -0.125,-0.222656 -0.25,-0.222656 -0.183594,0 -0.351563,0.167969 -0.351563,0.363281 0,0.238282 0.238281,0.394532 0.617188,0.394532 0.378906,0 1.109375,-0.226563 1.304687,-0.984376 L 87.53125,8.890625 c 0.01563,-0.070313 0.03125,-0.125 0.03125,-0.222656 0,-0.335938 -0.296875,-0.589844 -0.660156,-0.589844 -0.699219,0 -1.09375,0.871094 -1.09375,0.964844 0,0.070312 0.08594,0.070312 0.09766,0.070312 0.07031,0 0.08594,-0.011719 0.128906,-0.109375 0.15234,-0.363281 0.472652,-0.742187 0.83984,-0.742187 0.152344,0 0.210938,0.097656 0.210938,0.308593 0,0.070313 0,0.152344 -0.01563,0.179688 z m 0,0"
         id="path12072" />
      <path
         style="fill:#000000;fill-opacity:1;fill-rule:nonzero;stroke:none"
         d="m 17.136719,111.98828 c -0.125,0.125 -0.417969,0.37891 -0.417969,0.53125 0,0.0859 0.08203,0.1836 0.167969,0.1836 0.08203,0 0.125,-0.0703 0.179687,-0.125 0.09766,-0.12891 0.308594,-0.37891 0.703125,-0.57422 0.05469,-0.043 0.152344,-0.0859 0.152344,-0.1836 0,-0.0977 -0.06641,-0.14062 -0.125,-0.18359 -0.195313,-0.14063 -0.292969,-0.29297 -0.363281,-0.50391 -0.03125,-0.082 -0.05859,-0.21093 -0.183594,-0.21093 -0.125,0 -0.183594,0.1289 -0.183594,0.19531 0,0.043 0.07031,0.32422 0.210938,0.51953 h -3.015625 c -0.140625,0 -0.304688,0 -0.304688,0.18359 0,0.16797 0.164063,0.16797 0.304688,0.16797 z m 0,0"
         id="path12074" />
      <path
         style="fill:#000000;fill-opacity:1;fill-rule:nonzero;stroke:none"
         d="m 16.996094,114.07422 c 0.05469,-0.125 0.08594,-0.17969 0.65625,-0.17969 v -0.42187 c -0.222656,0.0156 -0.472656,0.0273 -0.699219,0.0273 -0.222656,0 -0.628906,-0.0273 -0.8125,-0.0273 v 0.42187 c 0.167969,0 0.421875,0.0273 0.421875,0.0977 0,0 0,0.0273 -0.04297,0.0977 l -1.039062,2.24219 -1.132813,-2.4375 h 0.472656 v -0.42187 c -0.292968,0.0156 -1.09375,0.0273 -1.105468,0.0273 -0.253906,0 -0.644532,-0.0273 -1.011719,-0.0273 v 0.42187 h 0.5625 l 1.570313,3.36328 c 0.113281,0.22657 0.226562,0.22657 0.335937,0.22657 0.15625,0 0.253906,-0.0273 0.335937,-0.22657 z m 0,0"
         id="path12076" />
      <path
         style="fill:#000000;fill-opacity:1;fill-rule:nonzero;stroke:none"
         d="m 19.800781,109.46875 c 0,-0.0156 0.03125,-0.10156 0.03125,-0.10156 0,-0.0391 -0.03125,-0.0977 -0.113281,-0.0977 -0.125,0 -0.644531,0.0586 -0.800781,0.0703 -0.03906,0 -0.125,0.0156 -0.125,0.14063 0,0.0859 0.08594,0.0859 0.152343,0.0859 0.308594,0 0.308594,0.0547 0.308594,0.0977 0,0.0391 -0.01172,0.082 -0.02734,0.14063 l -0.785156,3.08203 c -0.01172,0.0703 -0.01172,0.14062 -0.01172,0.19922 0,0.40234 0.347656,0.58594 0.644531,0.58594 0.152343,0 0.347656,-0.043 0.503906,-0.32422 0.140625,-0.23438 0.222656,-0.60157 0.222656,-0.62891 0,-0.082 -0.08203,-0.082 -0.09766,-0.082 -0.09766,0 -0.109375,0.0391 -0.125,0.15234 -0.08594,0.3086 -0.210937,0.71485 -0.476563,0.71485 -0.167968,0 -0.210937,-0.15625 -0.210937,-0.3086 0,-0.0703 0.01563,-0.17968 0.04297,-0.25 z m 0,0"
         id="path12078" />
      <path
         style="fill:#000000;fill-opacity:1;fill-rule:nonzero;stroke:none"
         d="m 23.222656,112.19922 h 1.917969 c 0.08594,0 0.226563,0 0.226563,-0.13672 0,-0.17187 -0.140626,-0.17187 -0.226563,-0.17187 h -1.917969 v -1.91797 c 0,-0.0703 0,-0.22657 -0.140625,-0.22657 -0.15625,0 -0.15625,0.14063 -0.15625,0.22657 v 1.91797 h -1.917969 c -0.08594,0 -0.242187,0 -0.242187,0.15625 0,0.15234 0.140625,0.15234 0.242187,0.15234 h 1.917969 v 1.92187 c 0,0.0859 0,0.23829 0.140625,0.23829 0.15625,0 0.15625,-0.15235 0.15625,-0.23829 z m 0,0"
         id="path12080" />
      <path
         style="fill:#000000;fill-opacity:1;fill-rule:nonzero;stroke:none"
         d="m 27.910156,109.63281 c 0,-0.16406 0,-0.16406 -0.183594,-0.16406 -0.40625,0.39063 -0.964843,0.39063 -1.21875,0.39063 v 0.22265 c 0.140626,0 0.5625,0 0.898438,-0.16797 v 3.1836 c 0,0.21093 0,0.29297 -0.617188,0.29297 h -0.238281 v 0.22656 c 0.109375,0 0.882813,-0.0273 1.105469,-0.0273 0.199219,0 0.984375,0.0273 1.121094,0.0273 v -0.22656 h -0.238282 c -0.628906,0 -0.628906,-0.082 -0.628906,-0.29297 z m 0,0"
         id="path12082" />
      <g
         clip-path="url(#clip42)"
         clip-rule="nonzero"
         id="g12086">
        <path
           style="fill:#000000;fill-opacity:1;fill-rule:nonzero;stroke:none"
           d="m 20.640625,116.01953 c 0,-0.0977 -0.08203,-0.23828 -0.253906,-0.23828 -0.179688,0 -0.347657,0.18359 -0.347657,0.35156 0,0.0977 0.07031,0.23828 0.25,0.23828 0.167969,0 0.351563,-0.16796 0.351563,-0.35156 z m -1.332031,4.22266 c -0.09766,0.43359 -0.433594,0.78515 -0.800782,0.78515 -0.08203,0 -0.152343,0 -0.222656,-0.0273 0.152344,-0.0859 0.210938,-0.22656 0.210938,-0.32422 0,-0.15625 -0.125,-0.22265 -0.253906,-0.22265 -0.179688,0 -0.347657,0.16796 -0.347657,0.36328 0,0.23828 0.238281,0.39453 0.613281,0.39453 0.382813,0 1.109376,-0.22656 1.304688,-0.98438 l 0.5625,-2.24218 c 0.01172,-0.0703 0.02734,-0.125 0.02734,-0.22657 0,-0.33203 -0.292969,-0.58593 -0.660156,-0.58593 -0.699219,0 -1.09375,0.86718 -1.09375,0.96484 0,0.0703 0.08594,0.0703 0.101562,0.0703 0.07031,0 0.08203,-0.0117 0.125,-0.10937 0.152344,-0.36719 0.476562,-0.74219 0.839844,-0.74219 0.15625,0 0.210937,0.0977 0.210937,0.30469 0,0.0703 0,0.15625 -0.01172,0.18359 z m 0,0"
           id="path12084" />
      </g>
      <path
         style="fill:#000000;fill-opacity:1;fill-rule:nonzero;stroke:none"
         d="m 83.324219,114.80469 c -0.335938,-0.0547 -0.910157,-0.15235 -0.910157,-0.57422 0,-0.55859 0.824219,-0.55859 0.992188,-0.55859 0.675781,0 1.011719,0.26171 1.054688,0.7539 0.01172,0.14063 0.02734,0.1836 0.207031,0.1836 0.210937,0 0.210937,-0.043 0.210937,-0.25391 v -0.71484 c 0,-0.16797 0,-0.25 -0.152344,-0.25 -0.04297,0 -0.05859,0 -0.40625,0.16796 -0.238281,-0.11328 -0.550781,-0.16796 -0.898437,-0.16796 -0.28125,0 -1.65625,0 -1.65625,1.17578 0,0.35156 0.183594,0.58984 0.367187,0.74218 0.347657,0.3086 0.699219,0.36329 1.386719,0.49219 0.320313,0.0547 0.980469,0.16797 0.980469,0.70313 0,0.67187 -0.8125,0.67187 -1.007812,0.67187 -0.953126,0 -1.179688,-0.66015 -1.289063,-1.03906 -0.04297,-0.125 -0.101563,-0.125 -0.210937,-0.125 -0.226563,0 -0.226563,0.0547 -0.226563,0.25 v 0.98437 c 0,0.16797 0,0.25 0.167969,0.25 0.05859,0 0.07031,0 0.269531,-0.13671 0.01172,0 0.210937,-0.12891 0.222656,-0.15625 0.421875,0.29296 0.882813,0.29296 1.066407,0.29296 0.277343,0 1.652343,0 1.652343,-1.30468 0,-0.39063 -0.179687,-0.69922 -0.488281,-0.95313 -0.351562,-0.25 -0.644531,-0.30859 -1.332031,-0.43359 z m 0,0"
         id="path12088" />
      <path
         style="fill:#000000;fill-opacity:1;fill-rule:nonzero;stroke:none"
         d="m 87.253906,109.46875 c 0,-0.0156 0.02734,-0.10156 0.02734,-0.10156 0,-0.0391 -0.02734,-0.0977 -0.113281,-0.0977 -0.125,0 -0.644531,0.0586 -0.800781,0.0703 -0.03906,0 -0.125,0.0156 -0.125,0.14063 0,0.0859 0.08594,0.0859 0.15625,0.0859 0.308593,0 0.308593,0.0547 0.308593,0.0977 0,0.0391 -0.01563,0.082 -0.02734,0.14063 l -0.785157,3.08203 c -0.01563,0.0703 -0.01563,0.14062 -0.01563,0.19922 0,0.40234 0.351563,0.58594 0.644532,0.58594 0.15625,0 0.347656,-0.043 0.503906,-0.32422 0.140625,-0.23438 0.226562,-0.60157 0.226562,-0.62891 0,-0.082 -0.08594,-0.082 -0.101562,-0.082 -0.09766,0 -0.109375,0.0391 -0.125,0.15234 -0.08594,0.3086 -0.210938,0.71485 -0.476563,0.71485 -0.167969,0 -0.210937,-0.15625 -0.210937,-0.3086 0,-0.0703 0.01563,-0.17968 0.04297,-0.25 z m 0,0"
         id="path12090" />
      <path
         style="fill:#000000;fill-opacity:1;fill-rule:nonzero;stroke:none"
         d="m 90.671875,112.19922 h 1.921875 c 0.08203,0 0.222656,0 0.222656,-0.13672 0,-0.17187 -0.140625,-0.17187 -0.222656,-0.17187 h -1.921875 v -1.91797 c 0,-0.0703 0,-0.22657 -0.140625,-0.22657 -0.15625,0 -0.15625,0.14063 -0.15625,0.22657 v 1.91797 h -1.917969 c -0.08594,0 -0.238281,0 -0.238281,0.15625 0,0.15234 0.136719,0.15234 0.238281,0.15234 H 90.375 v 1.92187 c 0,0.0859 0,0.23829 0.140625,0.23829 0.15625,0 0.15625,-0.15235 0.15625,-0.23829 z m 0,0"
         id="path12092" />
      <path
         style="fill:#000000;fill-opacity:1;fill-rule:nonzero;stroke:none"
         d="m 95.359375,109.63281 c 0,-0.16406 0,-0.16406 -0.179687,-0.16406 -0.410157,0.39063 -0.96875,0.39063 -1.222657,0.39063 v 0.22265 c 0.140625,0 0.5625,0 0.898438,-0.16797 v 3.1836 c 0,0.21093 0,0.29297 -0.617188,0.29297 H 94 v 0.22656 c 0.113281,0 0.882812,-0.0273 1.109375,-0.0273 0.195313,0 0.980469,0.0273 1.121094,0.0273 v -0.22656 h -0.238281 c -0.632813,0 -0.632813,-0.082 -0.632813,-0.29297 z m 0,0"
         id="path12094" />
      <g
         clip-path="url(#clip43)"
         clip-rule="nonzero"
         id="g12098">
        <path
           style="fill:#000000;fill-opacity:1;fill-rule:nonzero;stroke:none"
           d="m 88.234375,116.01953 c 0,-0.0977 -0.08594,-0.23828 -0.253906,-0.23828 -0.179688,0 -0.347657,0.18359 -0.347657,0.35156 0,0.0977 0.07031,0.23828 0.25,0.23828 0.167969,0 0.351563,-0.16796 0.351563,-0.35156 z m -1.332031,4.22266 c -0.09766,0.43359 -0.433594,0.78515 -0.800782,0.78515 -0.08203,0 -0.152343,0 -0.222656,-0.0273 0.152344,-0.0859 0.210938,-0.22656 0.210938,-0.32422 0,-0.15625 -0.128906,-0.22265 -0.253906,-0.22265 -0.183594,0 -0.351563,0.16796 -0.351563,0.36328 0,0.23828 0.238281,0.39453 0.617187,0.39453 0.378907,0 1.109376,-0.22656 1.304688,-0.98438 l 0.5625,-2.24218 c 0.01172,-0.0703 0.02734,-0.125 0.02734,-0.22657 0,-0.33203 -0.292969,-0.58593 -0.660156,-0.58593 -0.699219,0 -1.09375,0.86718 -1.09375,0.96484 0,0.0703 0.08594,0.0703 0.09766,0.0703 0.07031,0 0.08594,-0.0117 0.128906,-0.10937 0.152344,-0.36719 0.472656,-0.74219 0.839844,-0.74219 0.152344,0 0.210937,0.0977 0.210937,0.30469 0,0.0703 0,0.15625 -0.01563,0.18359 z m 0,0"
           id="path12096" />
      </g>
    </g>
  </g>
</svg>
